<?xml version="1.0" encoding="UTF-8" standalone="no"?>
<svg
   viewBox="0 0 448 512"
   version="1.1"
   id="svg1435"
   sodipodi:docname="js-brands.svg"
   inkscape:version="1.1.1 (3bf5ae0d25, 2021-09-20)"
   xmlns:inkscape="http://www.inkscape.org/namespaces/inkscape"
   xmlns:sodipodi="http://sodipodi.sourceforge.net/DTD/sodipodi-0.dtd"
   xmlns="http://www.w3.org/2000/svg"
   xmlns:svg="http://www.w3.org/2000/svg">
  <defs
     id="defs1439" />
  <sodipodi:namedview
     id="namedview1437"
     pagecolor="#ffffff"
     bordercolor="#666666"
     borderopacity="1.0"
     inkscape:pageshadow="2"
     inkscape:pageopacity="0.0"
     inkscape:pagecheckerboard="0"
     showgrid="false"
     inkscape:zoom="1.6269531"
     inkscape:cx="224.03842"
     inkscape:cy="255.07803"
     inkscape:window-width="1920"
     inkscape:window-height="1011"
     inkscape:window-x="0"
     inkscape:window-y="32"
     inkscape:window-maximized="1"
     inkscape:current-layer="svg1435" />
  <!--! Font Awesome Pro 6.1.1 by @fontawesome - https://fontawesome.com License - https://fontawesome.com/license (Commercial License) Copyright 2022 Fonticons, Inc. -->
  <path
     d="M0 32v448h448V32H0zm243.8 349.4c0 43.6-25.6 63.5-62.9 63.5-33.7 0-53.2-17.4-63.2-38.5l34.3-20.7c6.6 11.7 12.6 21.6 27.1 21.6 13.8 0 22.6-5.4 22.6-26.5V237.7h42.1v143.7zm99.6 63.5c-39.1 0-64.4-18.6-76.7-43l34.3-19.8c9 14.7 20.8 25.6 41.5 25.6 17.4 0 28.6-8.7 28.6-20.8 0-14.4-11.4-19.5-30.7-28l-10.5-4.5c-30.4-12.9-50.5-29.2-50.5-63.5 0-31.6 24.1-55.6 61.6-55.6 26.8 0 46 9.3 59.8 33.7L368 290c-7.2-12.9-15-18-27.1-18-12.3 0-20.1 7.8-20.1 18 0 12.6 7.8 17.7 25.9 25.6l10.5 4.5c35.8 15.3 55.9 31 55.9 66.2 0 37.8-29.8 58.6-69.7 58.6z"
     id="path1433" />
  <path
     style="fill:#076acd;stroke-width:0.614646"
     d="M 0.30732293,256 V 32.268908 H 224.03842 447.76951 V 256 479.73109 H 224.03842 0.30732293 Z M 190.7181,444.66585 c 15.87788,-1.71605 28.49728,-7.34032 37.35075,-16.64665 7.82231,-8.22242 11.60029,-15.84801 14.57639,-29.42136 1.25244,-5.71213 1.28522,-7.52692 1.50689,-83.43818 l 0.22659,-77.59904 h -21.5411 -21.5411 l -0.0107,74.52581 c -0.0116,81.23588 0.0596,79.48305 -3.49535,86.02171 -3.22601,5.93367 -9.13035,8.73801 -18.3139,8.69844 -8.00826,-0.0346 -11.63562,-1.56049 -17.21009,-7.24004 -2.36638,-2.41099 -5.54547,-6.51946 -7.06463,-9.12994 -1.51913,-2.61048 -3.00818,-4.74632 -3.30896,-4.74632 -1.00488,0 -33.71364,19.93316 -34.02036,20.73246 -0.45311,1.1808 4.52454,9.49388 9.05184,15.1173 14.12751,17.54797 37.38712,25.97979 63.79373,23.12581 z m 163.09913,0.008 c 30.41609,-3.04648 51.10447,-18.33142 57.7883,-42.69498 1.15134,-4.19683 1.35213,-6.53793 1.37063,-15.9808 0.0184,-9.41502 -0.1805,-11.86972 -1.33515,-16.47333 -2.69397,-10.74085 -7.50246,-18.86642 -15.92451,-26.90981 -8.77369,-8.37921 -20.01741,-14.89969 -42.29513,-24.52786 -16.81039,-7.26525 -22.03479,-10.11825 -26.49671,-14.46962 -3.01475,-2.94005 -4.00389,-4.39217 -4.78615,-7.02632 -2.13144,-7.17733 -0.73406,-13.85676 3.86002,-18.45085 4.00536,-4.00533 8.27014,-5.54434 15.36408,-5.54434 10.68369,0 17.87165,4.2728 24.42688,14.52028 2.05661,3.215 2.2342,3.3424 3.50418,2.51377 0.73578,-0.48007 7.97596,-5.09962 16.08928,-10.26566 8.11333,-5.16604 14.99231,-9.61013 15.28663,-9.87575 0.72417,-0.65356 -3.33424,-7.21137 -7.65686,-12.37238 -5.95504,-7.11004 -11.41795,-11.51695 -18.80765,-15.17204 -8.99865,-4.45092 -16.44386,-6.17246 -28.83967,-6.66857 -15.02621,-0.60137 -24.77315,1.25809 -36.19853,6.90577 -11.70298,5.7849 -18.90702,12.89021 -24.29371,23.9608 -4.70513,9.66983 -5.21235,12.20237 -5.17032,25.81512 0.0311,10.07094 0.22258,12.35505 1.39126,16.59544 2.83676,10.29271 7.7548,18.39893 15.85622,26.13523 8.38907,8.01097 19.12839,14.29233 38.339,22.4242 25.69471,10.87661 32.41785,15.68698 34.77296,24.8799 2.31661,9.0426 -2.09279,17.78337 -11.03534,21.87535 -6.07055,2.7778 -10.45256,3.51539 -18.82046,3.16791 -8.39909,-0.34878 -12.73579,-1.46015 -19.32126,-4.95148 -4.6758,-2.4789 -12.92608,-10.28636 -16.68834,-15.79261 -1.61154,-2.35858 -3.12542,-4.28832 -3.36418,-4.28832 -0.56134,0 -33.16474,18.81847 -33.93105,19.58478 -0.68491,0.68491 2.54822,6.44856 6.97906,12.44145 16.39089,22.16938 47.0825,33.93542 79.93652,30.64475 z"
     id="path1478" />
</svg>
