<?xml version="1.0" encoding="UTF-8" standalone="no"?>
<svg
   viewBox="0 0 448 512"
   version="1.1"
   id="svg1445"
   sodipodi:docname="database-solid.svg"
   inkscape:version="1.1.1 (3bf5ae0d25, 2021-09-20)"
   xmlns:inkscape="http://www.inkscape.org/namespaces/inkscape"
   xmlns:sodipodi="http://sodipodi.sourceforge.net/DTD/sodipodi-0.dtd"
   xmlns="http://www.w3.org/2000/svg"
   xmlns:svg="http://www.w3.org/2000/svg">
  <defs
     id="defs1449" />
  <sodipodi:namedview
     id="namedview1447"
     pagecolor="#ffffff"
     bordercolor="#666666"
     borderopacity="1.0"
     inkscape:pageshadow="2"
     inkscape:pageopacity="0.0"
     inkscape:pagecheckerboard="0"
     showgrid="false"
     inkscape:zoom="1.6269531"
     inkscape:cx="224.03842"
     inkscape:cy="255.07803"
     inkscape:window-width="1920"
     inkscape:window-height="1011"
     inkscape:window-x="0"
     inkscape:window-y="32"
     inkscape:window-maximized="1"
     inkscape:current-layer="svg1445" />
  <!--! Font Awesome Pro 6.1.1 by @fontawesome - https://fontawesome.com License - https://fontawesome.com/license (Commercial License) Copyright 2022 Fonticons, Inc. -->
  <path
     d="M448 80V128C448 172.2 347.7 208 224 208C100.3 208 0 172.2 0 128V80C0 35.82 100.3 0 224 0C347.7 0 448 35.82 448 80zM393.2 214.7C413.1 207.3 433.1 197.8 448 186.1V288C448 332.2 347.7 368 224 368C100.3 368 0 332.2 0 288V186.1C14.93 197.8 34.02 207.3 54.85 214.7C99.66 230.7 159.5 240 224 240C288.5 240 348.3 230.7 393.2 214.7V214.7zM54.85 374.7C99.66 390.7 159.5 400 224 400C288.5 400 348.3 390.7 393.2 374.7C413.1 367.3 433.1 357.8 448 346.1V432C448 476.2 347.7 512 224 512C100.3 512 0 476.2 0 432V346.1C14.93 357.8 34.02 367.3 54.85 374.7z"
     id="path1443" />
  <path
     style="fill:#076acd;stroke-width:0.614646"
     d="M 189.31092,206.79387 C 128.83518,203.13705 77.042078,191.60666 41.827153,173.96043 19.316982,162.68056 6.0115463,150.25476 1.6628228,136.45138 0.34623192,132.27236 0.30738138,131.32845 0.30936023,103.56783 0.31138414,75.174378 0.32081545,74.960574 1.7463692,70.991597 8.7467222,51.501458 32.259933,35.014387 71.913565,21.79153 164.50937,-9.0853687 311.03286,-6.1813565 393.68067,28.168771 c 29.3569,12.20133 48.02474,27.761307 52.80032,44.010014 0.83705,2.848011 0.97899,7.498219 0.96617,31.654265 -0.009,17.19108 -0.26388,29.39577 -0.64843,31.06462 -4.3161,18.73088 -29.24501,37.20203 -68.16493,50.50701 -31.06232,10.61883 -65.52719,17.07767 -111.26285,20.85108 -10.51949,0.8679 -66.25219,1.2521 -78.06003,0.53811 z"
     id="path1545" />
  <path
     style="fill:#076acd;stroke-width:0.614646"
     d="M 199.67454,367.21088 C 135.01382,364.59383 76.585796,352.09826 39.951981,333.05221 28.087642,326.8839 20.815898,321.76519 13.497573,314.43049 8.6547103,309.57679 6.4374399,306.81719 4.714987,303.49973 0.07264936,294.55854 0.3999618,299.12737 0.15652977,239.86992 l -0.21902499,-53.31615 4.79475302,3.44507 C 42.361748,217.0359 109.75258,235.01146 189.92557,239.39656 c 14.6433,0.80092 53.58239,0.80092 68.22569,0 79.65169,-4.35659 145.49452,-21.82278 184.54742,-48.95508 l 4.7635,-3.30948 -0.0159,53.02704 -0.0159,53.02703 -1.37413,4.03074 c -4.52924,13.28558 -18.28207,26.03658 -39.69368,36.80212 -46.70836,23.4845 -127.19254,36.40943 -206.6881,33.19195 z"
     id="path1584" />
  <path
     style="fill:#076acd;stroke-width:0.614646"
     d="M 194.22809,511.00521 C 149.92425,508.93306 105.32611,501.35018 71.913565,490.20847 32.259266,476.98539 8.7342934,460.48952 1.7487392,441.0084 L 0.3161375,437.01321 0.12174303,391.93167 c -0.10691691,-24.79484 0.0293951,-44.94127 0.30291567,-44.76984 0.27352054,0.17143 4.0929884,2.71506 8.4877062,5.65252 33.5120281,22.39966 91.2741251,38.95338 156.4273751,44.82967 37.05362,3.34193 80.82829,3.34631 117.09003,0.0117 48.54358,-4.46403 92.06088,-14.2513 124.07371,-27.90482 14.30921,-6.1029 28.65233,-13.78522 36.69947,-19.65661 l 4.25923,-3.10765 v 44.74806 c 0,49.68247 0.17674,47.33228 -4.18731,55.68183 -2.6449,5.06038 -10.45561,13.52611 -17.07825,18.51045 -41.60029,31.30929 -135.63884,49.58371 -231.96853,45.07823 z"
     id="path1623" />
</svg>
