<?xml version="1.0" encoding="UTF-8" standalone="no"?>
<svg
   viewBox="0 0 32 32"
   width="64"
   height="64"
   version="1.1"
   id="svg4"
   sodipodi:docname="expressjs-icon.svg"
   inkscape:version="1.1.1 (3bf5ae0d25, 2021-09-20)"
   xmlns:inkscape="http://www.inkscape.org/namespaces/inkscape"
   xmlns:sodipodi="http://sodipodi.sourceforge.net/DTD/sodipodi-0.dtd"
   xmlns="http://www.w3.org/2000/svg"
   xmlns:svg="http://www.w3.org/2000/svg">
  <defs
     id="defs8" />
  <sodipodi:namedview
     id="namedview6"
     pagecolor="#ffffff"
     bordercolor="#666666"
     borderopacity="1.0"
     inkscape:pageshadow="2"
     inkscape:pageopacity="0.0"
     inkscape:pagecheckerboard="0"
     showgrid="false"
     inkscape:zoom="13.015625"
     inkscape:cx="32"
     inkscape:cy="31.884754"
     inkscape:window-width="1920"
     inkscape:window-height="1011"
     inkscape:window-x="0"
     inkscape:window-y="32"
     inkscape:window-maximized="1"
     inkscape:current-layer="svg4" />
  <path
     d="M32 24.795c-1.164.296-1.884.013-2.53-.957l-4.594-6.356-.664-.88-5.365 7.257c-.613.873-1.256 1.253-2.4.944l6.87-9.222-6.396-8.33c1.1-.214 1.86-.105 2.535.88l4.765 6.435 4.8-6.4c.615-.873 1.276-1.205 2.38-.883l-2.48 3.288-3.36 4.375c-.4.5-.345.842.023 1.325L32 24.795zM.008 15.427l.562-2.764C2.1 7.193 8.37 4.92 12.694 8.3c2.527 1.988 3.155 4.8 3.03 7.95H1.48c-.214 5.67 3.867 9.092 9.07 7.346 1.825-.613 2.9-2.042 3.438-3.83.273-.896.725-1.036 1.567-.78-.43 2.236-1.4 4.104-3.45 5.273-3.063 1.75-7.435 1.184-9.735-1.248C1 21.6.434 19.812.18 17.9c-.04-.316-.12-.617-.18-.92q.008-.776.008-1.552zm1.498-.38h12.872c-.084-4.1-2.637-7.012-6.126-7.037-3.83-.03-6.58 2.813-6.746 7.037z"
     id="path2" />
  <path
     style="fill:#076acd;stroke-width:0.0768307"
     d="M 14.789916,50.463557 C 11.641676,50.188819 8.5555991,49.058574 6.3339664,47.366647 5.3158435,46.591277 3.9925755,45.18685 3.2883051,44.134191 1.8708964,42.015617 1.0548593,39.78493 0.53572399,36.609844 0.40790528,35.828091 0.25008864,34.946913 0.18502037,34.65167 0.09685035,34.251604 0.06855755,33.685933 0.07395013,32.430992 L 0.08118581,30.74712 0.65665176,27.915357 C 1.3495826,24.505572 1.679708,23.493988 2.6958764,21.666684 c 1.6544719,-2.975122 4.0194877,-5.209046 7.0716691,-6.679691 2.3314205,-1.123357 4.4228215,-1.564754 7.0172985,-1.481026 1.379005,0.0445 2.1171,0.151348 3.333581,0.482559 2.800885,0.762597 5.412445,2.422019 7.36431,4.679387 2.69578,3.117721 3.937302,7.009841 3.940242,12.352495 l 7.93e-4,1.440576 H 17.171669 2.9195678 v 1.023871 c 0,6.840829 3.4051757,12.260394 8.8138752,14.027875 2.722476,0.889664 6.026412,0.81014 9.165382,-0.220606 1.707698,-0.560758 2.913098,-1.291499 4.114262,-2.49416 1.257727,-1.259295 2.174517,-2.803279 2.87156,-4.836053 0.416173,-1.213679 0.654573,-1.638105 1.06732,-1.900168 0.428667,-0.272171 0.790072,-0.329207 1.406171,-0.221918 0.750589,0.13071 0.731135,0.09517 0.531616,0.971185 -0.21918,0.962334 -0.830382,2.802493 -1.195556,3.599487 -1.131496,2.469494 -2.97622,4.549525 -5.236301,5.904227 -1.858696,1.114109 -4.296014,1.889219 -6.665719,2.119813 -0.782187,0.07612 -2.295031,0.09074 -3.002262,0.02902 z M 28.811525,30.051974 c 0,-0.05725 -0.0359,-0.546136 -0.07977,-1.086415 -0.435379,-5.361647 -3.002697,-9.67484 -6.962916,-11.697967 -1.674806,-0.855594 -2.940059,-1.170154 -4.936409,-1.227258 -1.623791,-0.04645 -2.598684,0.04456 -3.885028,0.362675 -4.9077271,1.213687 -8.4939082,5.176887 -9.5943327,10.602993 -0.2034778,1.003333 -0.3566727,2.206521 -0.3566727,2.801294 v 0.348766 H 15.903962 c 10.807259,0 12.907563,-0.01694 12.907563,-0.104088 z"
     id="path862"
     transform="scale(0.5)" />
  <path
     style="fill:#076acd;stroke-width:0.0768307"
     d="m 33.290789,49.663074 -0.322657,-0.07635 1.785871,-2.397205 c 0.982229,-1.318462 4.059848,-5.44961 6.839154,-9.180327 2.779305,-3.730717 5.042348,-6.827005 5.028982,-6.88064 -0.01337,-0.05363 -2.859354,-3.788536 -6.32442,-8.299781 -3.465066,-4.511245 -6.31066,-8.231691 -6.323541,-8.267656 -0.0317,-0.08849 0.88981,-0.195604 1.598451,-0.185793 0.955014,0.01322 1.722117,0.301427 2.4417,0.917363 0.17823,0.152559 2.541075,3.273994 5.250765,6.936523 2.709691,3.66253 4.988218,6.723951 5.063392,6.803159 0.132203,0.139297 0.302642,-0.07715 5.202967,-6.607443 2.786458,-3.713302 5.245503,-6.917931 5.464545,-7.121399 0.760622,-0.706544 1.803615,-1.035418 2.824998,-0.890772 0.563047,0.07974 0.872882,0.148018 0.872882,0.192365 0,0.05679 -5.072783,6.74594 -8.415947,11.097572 -1.867875,2.431319 -3.469749,4.564876 -3.559723,4.741237 -0.205525,0.402864 -0.213558,1.01754 -0.01883,1.440824 0.07776,0.169028 3.083589,4.214166 6.67962,8.989196 l 6.538238,8.681872 -0.36198,0.08866 c -0.199088,0.04876 -0.678706,0.09198 -1.065818,0.09604 -1.142911,0.01198 -1.950341,-0.320374 -2.726156,-1.122129 -0.196222,-0.202781 -2.490751,-3.324757 -5.098954,-6.937722 -2.608203,-3.612965 -5.075107,-7.009046 -5.482008,-7.546846 -0.692728,-0.915577 -0.747795,-0.969373 -0.8651,-0.845138 -0.0689,0.07297 -2.617358,3.507407 -5.663233,7.632073 -3.616907,4.897947 -5.68641,7.635072 -5.96592,7.890529 -0.235382,0.215126 -0.659105,0.504926 -0.941607,0.644001 -0.471957,0.232344 -0.579348,0.254133 -1.323327,0.268497 -0.445328,0.0086 -0.954883,-0.01872 -1.132344,-0.06071 z"
     id="path901"
     transform="scale(0.5)" />
</svg>
