<?xml version="1.0" encoding="UTF-8" standalone="no"?>
<svg
   viewBox="0 0 384 512"
   version="1.1"
   id="svg1314"
   sodipodi:docname="html5-brands.svg"
   inkscape:version="1.1.1 (3bf5ae0d25, 2021-09-20)"
   xmlns:inkscape="http://www.inkscape.org/namespaces/inkscape"
   xmlns:sodipodi="http://sodipodi.sourceforge.net/DTD/sodipodi-0.dtd"
   xmlns="http://www.w3.org/2000/svg"
   xmlns:svg="http://www.w3.org/2000/svg">
  <defs
     id="defs1318" />
  <sodipodi:namedview
     id="namedview1316"
     pagecolor="#ffffff"
     bordercolor="#666666"
     borderopacity="1.0"
     inkscape:pageshadow="2"
     inkscape:pageopacity="0.0"
     inkscape:pagecheckerboard="0"
     showgrid="false"
     inkscape:zoom="1.6269531"
     inkscape:cx="192.07683"
     inkscape:cy="255.07803"
     inkscape:window-width="1920"
     inkscape:window-height="1011"
     inkscape:window-x="0"
     inkscape:window-y="32"
     inkscape:window-maximized="1"
     inkscape:current-layer="svg1314" />
  <!--! Font Awesome Pro 6.1.1 by @fontawesome - https://fontawesome.com License - https://fontawesome.com/license (Commercial License) Copyright 2022 Fonticons, Inc. -->
  <path
     d="M0 32l34.9 395.8L191.5 480l157.6-52.2L384 32H0zm308.2 127.9H124.4l4.1 49.4h175.6l-13.6 148.4-97.9 27v.3h-1.1l-98.7-27.3-6-75.8h47.7L138 320l53.5 14.5 53.7-14.5 6-62.2H84.3L71.5 112.2h241.1l-4.4 47.7z"
     id="path1312" />
  <path
     style="fill:#076acd;stroke-width:0.614646"
     d="m 113.40216,453.66692 -77.7527,-25.96677 -0.466612,-2.10458 C 34.926211,424.43806 27.113043,336.77983 17.820252,230.79952 8.5274608,124.81921 0.75950049,36.794238 0.55811829,35.188475 L 0.19196878,32.268908 H 191.96067 383.72937 l -0.27223,2.304922 c -0.14973,1.267707 -7.99803,90.1004 -17.44066,197.40599 -9.44265,107.30559 -17.3841,195.28903 -17.64768,195.51875 -0.3563,0.31052 -153.1713,51.0204 -156.59929,51.96564 -0.33806,0.0932 -35.60336,-11.51556 -78.36735,-25.79729 z M 241.6079,371.53904 c 26.97525,-7.44511 49.08966,-13.59926 49.14316,-13.67587 0.0535,-0.0766 3.04817,-32.63868 6.65484,-72.36017 3.60668,-39.72149 6.70367,-73.11981 6.88221,-74.21849 l 0.32462,-1.9976 h -87.92222 c -83.31383,0 -87.92383,-0.0564 -87.95326,-1.07563 -0.0171,-0.59159 -0.9263,-11.65432 -2.02048,-24.58384 l -1.98941,-23.5082 91.90271,-0.15566 91.90272,-0.15566 2.1878,-23.81752 2.1878,-23.81753 H 192.00848 71.10857 l 0.274421,2.30492 c 0.301152,2.5294 12.516169,141.89857 12.516169,142.80517 0,0.33546 33.58922,0.56098 83.55319,0.56098 h 83.5532 l -0.28849,1.9976 c -0.15866,1.09868 -1.52774,14.97783 -3.04241,30.84256 -1.51466,15.86473 -2.81956,28.909 -2.89976,28.98728 -0.0802,0.0783 -12.09766,3.36445 -26.70543,7.30261 l -26.55959,7.1603 -26.64199,-7.2131 -26.64198,-7.2131 -1.40769,-16.02691 c -0.77423,-8.81481 -1.55776,-17.34072 -1.74118,-18.94649 l -0.33349,-2.91956 H 110.52947 86.3154 l 0.347232,2.91956 c 0.190983,1.60577 1.582443,18.66117 3.092142,37.90091 1.509699,19.23973 2.856142,35.09256 2.992096,35.22851 0.454801,0.45481 97.16,27.1331 98.49692,27.17259 0.72502,0.0214 23.38887,-6.05253 50.36411,-13.49766 z"
     id="path1357" />
</svg>
