<?xml version="1.0" encoding="UTF-8" standalone="no"?>
<svg
   viewBox="0 0 448 512"
   version="1.1"
   id="svg955"
   sodipodi:docname="linux-brands.svg"
   inkscape:version="1.1.1 (3bf5ae0d25, 2021-09-20)"
   xmlns:inkscape="http://www.inkscape.org/namespaces/inkscape"
   xmlns:sodipodi="http://sodipodi.sourceforge.net/DTD/sodipodi-0.dtd"
   xmlns="http://www.w3.org/2000/svg"
   xmlns:svg="http://www.w3.org/2000/svg">
  <defs
     id="defs959" />
  <sodipodi:namedview
     id="namedview957"
     pagecolor="#ffffff"
     bordercolor="#666666"
     borderopacity="1.0"
     inkscape:pageshadow="2"
     inkscape:pageopacity="0.0"
     inkscape:pagecheckerboard="0"
     showgrid="false"
     inkscape:zoom="1.1504296"
     inkscape:cx="62.150696"
     inkscape:cy="290.32633"
     inkscape:window-width="1920"
     inkscape:window-height="1011"
     inkscape:window-x="0"
     inkscape:window-y="32"
     inkscape:window-maximized="1"
     inkscape:current-layer="svg955" />
  <!--! Font Awesome Pro 6.1.1 by @fontawesome - https://fontawesome.com License - https://fontawesome.com/license (Commercial License) Copyright 2022 Fonticons, Inc. -->
  <path
     d="M220.8 123.3c1 .5 1.8 1.7 3 1.7 1.1 0 2.8-.4 2.9-1.5.2-1.4-1.9-2.3-3.2-2.9-1.7-.7-3.9-1-5.5-.1-.4.2-.8.7-.6 1.1.3 1.3 2.3 1.1 3.4 1.7zm-21.9 1.7c1.2 0 2-1.2 3-1.7 1.1-.6 3.1-.4 3.5-1.6.2-.4-.2-.9-.6-1.1-1.6-.9-3.8-.6-5.5.1-1.3.6-3.4 1.5-3.2 2.9.1 1 1.8 1.5 2.8 1.4zM420 403.8c-3.6-4-5.3-11.6-7.2-19.7-1.8-8.1-3.9-16.8-10.5-22.4-1.3-1.1-2.6-2.1-4-2.9-1.3-.8-2.7-1.5-4.1-2 9.2-27.3 5.6-54.5-3.7-79.1-11.4-30.1-31.3-56.4-46.5-74.4-17.1-21.5-33.7-41.9-33.4-72C311.1 85.4 315.7.1 234.8 0 132.4-.2 158 103.4 156.9 135.2c-1.7 23.4-6.4 41.8-22.5 64.7-18.9 22.5-45.5 58.8-58.1 96.7-6 17.9-8.8 36.1-6.2 53.3-6.5 5.8-11.4 14.7-16.6 20.2-4.2 4.3-10.3 5.9-17 8.3s-14 6-18.5 14.5c-2.1 3.9-2.8 8.1-2.8 12.4 0 3.9.6 7.9 1.2 11.8 1.2 8.1 2.5 15.7.8 20.8-5.2 14.4-5.9 24.4-2.2 31.7 3.8 7.3 11.4 10.5 20.1 12.3 17.3 3.6 40.8 2.7 59.3 12.5 19.8 10.4 39.9 14.1 55.9 10.4 11.6-2.6 21.1-9.6 25.9-20.2 12.5-.1 26.3-5.4 48.3-6.6 14.9-1.2 33.6 5.3 55.1 4.1.6 2.3 1.4 4.6 2.5 6.7v.1c8.3 16.7 23.8 24.3 40.3 23 16.6-1.3 34.1-11 48.3-27.9 13.6-16.4 36-23.2 50.9-32.2 7.4-4.5 13.4-10.1 13.9-18.3.4-8.2-4.4-17.3-15.5-29.7zM223.7 87.3c9.8-22.2 34.2-21.8 44-.4 6.5 14.2 3.6 30.9-4.3 40.4-1.6-.8-5.9-2.6-12.6-4.9 1.1-1.2 3.1-2.7 3.9-4.6 4.8-11.8-.2-27-9.1-27.3-7.3-.5-13.9 10.8-11.8 23-4.1-2-9.4-3.5-13-4.4-1-6.9-.3-14.6 2.9-21.8zM183 75.8c10.1 0 20.8 14.2 19.1 33.5-3.5 1-7.1 2.5-10.2 4.6 1.2-8.9-3.3-20.1-9.6-19.6-8.4.7-9.8 21.2-1.8 28.1 1 .8 1.9-.2-5.9 5.5-15.6-14.6-10.5-52.1 8.4-52.1zm-13.6 60.7c6.2-4.6 13.6-10 14.1-10.5 4.7-4.4 13.5-14.2 27.9-14.2 7.1 0 15.6 2.3 25.9 8.9 6.3 4.1 11.3 4.4 22.6 9.3 8.4 3.5 13.7 9.7 10.5 18.2-2.6 7.1-11 14.4-22.7 18.1-11.1 3.6-19.8 16-38.2 14.9-3.9-.2-7-1-9.6-2.1-8-3.5-12.2-10.4-20-15-8.6-4.8-13.2-10.4-14.7-15.3-1.4-4.9 0-9 4.2-12.3zm3.3 334c-2.7 35.1-43.9 34.4-75.3 18-29.9-15.8-68.6-6.5-76.5-21.9-2.4-4.7-2.4-12.7 2.6-26.4v-.2c2.4-7.6.6-16-.6-23.9-1.2-7.8-1.8-15 .9-20 3.5-6.7 8.5-9.1 14.8-11.3 10.3-3.7 11.8-3.4 19.6-9.9 5.5-5.7 9.5-12.9 14.3-18 5.1-5.5 10-8.1 17.7-6.9 8.1 1.2 15.1 6.8 21.9 16l19.6 35.6c9.5 19.9 43.1 48.4 41 68.9zm-1.4-25.9c-4.1-6.6-9.6-13.6-14.4-19.6 7.1 0 14.2-2.2 16.7-8.9 2.3-6.2 0-14.9-7.4-24.9-13.5-18.2-38.3-32.5-38.3-32.5-13.5-8.4-21.1-18.7-24.6-29.9s-3-23.3-.3-35.2c5.2-22.9 18.6-45.2 27.2-59.2 2.3-1.7.8 3.2-8.7 20.8-8.5 16.1-24.4 53.3-2.6 82.4.6-20.7 5.5-41.8 13.8-61.5 12-27.4 37.3-74.9 39.3-112.7 1.1.8 4.6 3.2 6.2 4.1 4.6 2.7 8.1 6.7 12.6 10.3 12.4 10 28.5 9.2 42.4 1.2 6.2-3.5 11.2-7.5 15.9-9 9.9-3.1 17.8-8.6 22.3-15 7.7 30.4 25.7 74.3 37.2 95.7 6.1 11.4 18.3 35.5 23.6 64.6 3.3-.1 7 .4 10.9 1.4 13.8-35.7-11.7-74.2-23.3-84.9-4.7-4.6-4.9-6.6-2.6-6.5 12.6 11.2 29.2 33.7 35.2 59 2.8 11.6 3.3 23.7.4 35.7 16.4 6.8 35.9 17.9 30.7 34.8-2.2-.1-3.2 0-4.2 0 3.2-10.1-3.9-17.6-22.8-26.1-19.6-8.6-36-8.6-38.3 12.5-12.1 4.2-18.3 14.7-21.4 27.3-2.8 11.2-3.6 24.7-4.4 39.9-.5 7.7-3.6 18-6.8 29-32.1 22.9-76.7 32.9-114.3 7.2zm257.4-11.5c-.9 16.8-41.2 19.9-63.2 46.5-13.2 15.7-29.4 24.4-43.6 25.5s-26.5-4.8-33.7-19.3c-4.7-11.1-2.4-23.1 1.1-36.3 3.7-14.2 9.2-28.8 9.9-40.6.8-15.2 1.7-28.5 4.2-38.7 2.6-10.3 6.6-17.2 13.7-21.1.3-.2.7-.3 1-.5.8 13.2 7.3 26.6 18.8 29.5 12.6 3.3 30.7-7.5 38.4-16.3 9-.3 15.7-.9 22.6 5.1 9.9 8.5 7.1 30.3 17.1 41.6 10.6 11.6 14 19.5 13.7 24.6zM173.3 148.7c2 1.9 4.7 4.5 8 7.1 6.6 5.2 15.8 10.6 27.3 10.6 11.6 0 22.5-5.9 31.8-10.8 4.9-2.6 10.9-7 14.8-10.4s5.9-6.3 3.1-6.6-2.6 2.6-6 5.1c-4.4 3.2-9.7 7.4-13.9 9.8-7.4 4.2-19.5 10.2-29.9 10.2s-18.7-4.8-24.9-9.7c-3.1-2.5-5.7-5-7.7-6.9-1.5-1.4-1.9-4.6-4.3-4.9-1.4-.1-1.8 3.7 1.7 6.5z"
     id="path953" />
  <path
     style="fill:#076acd;stroke-width:0.869241"
     d="m 309.015,510.37673 c -11.4636,-2.99077 -21.02404,-10.92958 -26.14301,-21.70867 l -3.04748,-6.41714 -9.5205,-0.57823 c -5.23627,-0.31803 -15.24753,-1.35377 -22.24724,-2.30163 -19.61597,-2.6563 -28.6971,-2.27697 -53.27107,2.22525 -6.41241,1.17482 -13.13897,2.13603 -14.94793,2.13603 -3.02456,0 -3.54547,0.38636 -6.47845,4.80509 -5.32789,8.0268 -12.48316,12.8887 -23.03285,15.65047 -4.34604,1.13773 -7.93063,1.36724 -16.02881,1.02624 -12.27794,-0.517 -21.36675,-2.88141 -34.769622,-9.04514 -14.180901,-6.52154 -21.541844,-8.7233 -35.638861,-10.6601 -26.964122,-3.70462 -30.725359,-4.35904 -35.655891,-6.20378 -14.33438,-5.36318 -18.2582582,-17.09449 -12.132704,-36.27343 2.477059,-7.75559 2.670961,-13.54376 0.849608,-25.36163 -2.404029,-15.59856 -1.2364,-22.19457 5.195211,-29.34807 4.173171,-4.64157 8.952757,-7.37482 20.245571,-11.57761 8.818611,-3.28198 10.841937,-4.94712 18.832763,-15.49873 3.472746,-4.58565 6.948623,-8.86415 7.724172,-9.5078 1.203192,-0.99857 1.333825,-2.52878 0.890323,-10.42912 -1.995867,-35.55347 19.304498,-84.25879 57.74981,-132.05047 17.59654,-21.87441 25.20295,-38.66282 28.56308,-63.04271 1.28684,-9.33688 1.3394,-12.70588 0.43674,-27.99884 -1.40379,-23.783177 -1.27364,-43.092779 0.36479,-54.127055 4.05883,-27.334834 15.54629,-45.152995 35.58412,-55.1943987 9.95269,-4.9875131 26.54829,-8.44598343 40.5741,-8.45551179 39.71421,-0.0269797 63.62468,19.43905449 72.461,58.99207949 3.40548,15.243556 4.03247,22.591478 4.71938,55.307926 0.59593,28.38295 0.83182,31.88481 2.53686,37.66103 4.7631,16.13604 11.5147,27.15783 33.10553,54.04384 22.36536,27.85048 35.27398,48.76846 43.93549,71.19595 9.32032,24.13339 11.5333,49.73081 6.12632,70.86306 -1.21454,4.74683 -2.11525,8.67136 -2.00157,8.7212 10.14527,4.44732 14.41324,11.00764 18.91096,29.06811 3.19206,12.81762 3.8091,14.11327 11.01053,23.11934 7.26672,9.08773 10.11691,14.96659 10.54946,21.75947 0.69093,10.85088 -4.21056,15.75432 -27.83124,27.84232 -22.15694,11.33893 -25.46226,13.64446 -38.48803,26.84623 -12.89511,13.06935 -21.64368,19.094 -33.05334,22.76201 -8.32239,2.6755 -19.63061,3.4363 -26.07722,1.75442 z m 27.06095,-8.28844 c 9.76824,-3.80961 18.21875,-10.02243 29.43968,-21.64407 11.46825,-11.87778 17.90826,-16.31377 39.27029,-27.05007 22.59223,-11.35459 26.38567,-15.55131 23.33687,-25.81776 -1.33466,-4.49428 -6.22533,-12.15239 -11.53344,-18.05979 -4.15252,-4.62134 -6.59681,-10.3828 -9.77475,-23.04025 -1.48676,-5.9216 -3.50224,-12.33282 -4.47885,-14.24713 -3.82513,-7.49787 -10.72404,-11.05979 -21.42115,-11.05979 -5.40364,0 -5.72288,0.12676 -9.99711,3.96967 -9.08128,8.16485 -24.0698,14.25613 -31.76622,12.90967 -4.38113,-0.76647 -10.08506,-4.1792 -12.6874,-7.59106 -3.31703,-4.34885 -6.59093,-12.13758 -7.17507,-17.06975 -0.28914,-2.44127 -0.81298,-4.61622 -1.1641,-4.83323 -1.24645,-0.77034 -6.54261,3.59441 -9.25092,7.62403 -5.4613,8.12571 -8.07065,20.33971 -9.79414,45.84498 -0.72226,10.68839 -1.54133,15.80889 -3.96273,24.77335 -1.67876,6.21507 -4.42584,16.38518 -6.10461,22.60025 -3.81803,14.13489 -4.66205,23.97727 -2.7081,31.57984 2.68131,10.43263 10.78767,19.33514 20.90554,22.95874 7.0542,2.52637 19.73141,1.71494 28.86621,-1.84763 z m -181.28217,-5.16297 c 6.88635,-2.70746 11.52093,-7.0221 14.88892,-13.86111 2.60006,-5.27965 2.86154,-6.53283 2.86154,-13.71436 0,-7.54574 -0.16694,-8.24089 -3.68528,-15.34619 -2.02691,-4.09334 -7.21382,-12.08495 -11.52647,-17.75913 -4.31265,-5.67417 -10.88899,-14.3117 -14.61409,-19.1945 -4.33805,-5.68625 -11.1174,-16.77971 -18.85775,-30.85804 -10.08991,-18.35179 -12.95226,-22.84976 -17.33948,-27.24775 -6.686733,-6.70313 -11.858691,-9.25051 -18.992709,-9.3546 -8.885488,-0.12964 -12.531547,2.48742 -23.133407,16.60471 -7.349764,9.78683 -11.781876,13.08577 -22.904846,17.04867 -18.84766,6.71507 -22.006689,13.19348 -18.364115,37.66038 1.570224,10.54708 1.231506,15.77766 -1.510309,23.32265 -1.409722,3.8793 -1.901545,7.3033 -1.968551,13.70476 l -0.08932,8.53347 3.591929,3.35452 c 4.487417,4.19082 9.466033,5.73003 24.223768,7.48911 26.527711,3.16203 38.792405,6.03613 50.200185,11.76388 7.434375,3.73275 13.234015,5.90579 21.946775,8.22314 6.72965,1.7899 9.40268,2.04275 19.12329,1.80895 9.13355,-0.21968 12.22998,-0.63738 16.14992,-2.17856 z m 80.19774,-37.96211 c 4.7049,-0.70916 12.58726,-2.63886 17.51634,-4.28824 13.99885,-4.68431 31.40587,-14.02053 33.52569,-17.98143 0.48246,-0.9015 2.0449,-6.03953 3.47208,-11.41783 1.98198,-7.46908 2.90224,-13.76781 3.89624,-26.66775 2.64185,-34.28536 7.68452,-47.48084 21.02124,-55.00762 3.38769,-1.91189 4.58816,-3.09548 4.58816,-4.52365 0,-1.06384 1.07568,-4.04336 2.39041,-6.62116 3.40201,-6.67037 7.90784,-8.98873 16.29826,-8.38584 10.99458,0.79 27.98196,8.3188 36.27721,16.07803 4.40496,4.12033 6.37017,8.77358 5.37684,12.73136 -0.50044,1.99391 -0.30348,2.20567 2.05162,2.20567 2.29667,0 2.67385,-0.36584 3.18471,-3.08895 0.88508,-4.71788 -1.50248,-11.60597 -5.66003,-16.3292 -3.75636,-4.26745 -15.04816,-11.72996 -21.44639,-14.17347 l -3.78204,-1.44436 0.69145,-6.16882 c 2.57593,-22.98166 -4.11356,-46.41594 -19.70137,-69.01678 -6.10996,-8.85886 -16.16042,-20.1645 -17.92578,-20.1645 -2.69362,0 -0.94003,3.61859 4.83446,9.97605 19.42848,21.38988 28.96855,52.26491 23.17077,74.9889 l -1.60703,6.29867 -4.90531,-0.55203 c -2.69792,-0.30363 -5.06041,-0.68541 -5.24998,-0.84841 -0.18956,-0.163 -1.61426,-5.29152 -3.16599,-11.3967 -4.32411,-17.01294 -11.66625,-35.81733 -19.9462,-51.0854 -11.86955,-21.88724 -31.91747,-72.60155 -37.03589,-93.688 l -1.00885,-4.15621 -5.07269,4.83852 c -3.19444,3.04699 -7.25727,5.81345 -10.97275,7.47156 -9.51828,4.24776 -14.14944,6.61305 -21.79566,11.13176 -17.52953,10.3595 -32.18487,9.16557 -47.00004,-3.82897 -4.60636,-4.04029 -14.1721,-10.86581 -15.22806,-10.86581 -0.1611,0 -0.55056,2.77213 -0.86546,6.16029 -1.88744,20.30816 -10.72695,45.86178 -31.39574,90.76002 -12.76987,27.73965 -18.77312,47.72617 -20.17811,67.17863 -0.28606,3.96056 -0.7963,7.37172 -1.13387,7.58035 -0.33757,0.20863 -1.6629,-1.54829 -2.94517,-3.90425 -4.23997,-7.79023 -5.85964,-13.81039 -6.37089,-23.68004 -0.90292,-17.4307 2.44507,-29.97302 14.51266,-54.36784 7.14709,-14.44794 9.32084,-20.33096 6.97695,-18.88236 -1.35423,0.83697 -10.16454,16.15917 -15.70297,27.30943 -9.52558,19.17735 -13.84844,34.77633 -13.84844,49.97184 0,11.24782 1.05007,16.52765 4.90087,24.64189 4.29422,9.0486 11.46423,16.29691 25.24974,25.52543 23.03692,15.42177 36.38821,28.93476 41.26212,41.76184 4.20051,11.05486 0.0493,18.91038 -11.17788,21.1522 l -4.70679,0.93984 5.0498,6.5795 c 2.77739,3.61872 6.26449,8.32556 7.74913,10.45964 2.11324,3.03769 4.378,4.74429 10.43088,7.86019 17.73276,9.12848 35.30823,11.96267 55.40175,8.93401 z M 223.47604,179.616 c 2.58477,-0.89136 8.34371,-3.83241 12.79763,-6.53568 4.45392,-2.70326 10.47343,-5.88023 13.37668,-7.05993 7.99879,-3.25019 12.26769,-6.03483 16.5454,-10.79269 4.75533,-5.28906 6.54128,-10.63195 5.05712,-15.12899 -1.94841,-5.90373 -6.91167,-9.2684 -21.34622,-14.47093 -4.30274,-1.5508 -10.75686,-4.50782 -14.34247,-6.57114 -10.03521,-5.77472 -16.3392,-7.57785 -25.19711,-7.20709 -8.82817,0.3695 -14.43959,2.6537 -21.74188,8.8503 -2.62945,2.23131 -8.59025,6.99693 -13.24623,10.59027 -8.79243,6.78574 -11.0925,9.75072 -11.0925,14.29913 0,5.58584 6.17994,13.42505 14.77708,18.7446 2.15138,1.33118 6.61894,4.75004 9.92794,7.59747 8.65146,7.44469 13.07193,9.28632 22.31519,9.29683 5.04806,0.006 8.9934,-0.51693 12.16937,-1.61215 z m -45.2631,-53.69164 c 3.96157,-2.62164 4.08015,-2.96388 1.75574,-5.06744 -6.13745,-5.55432 -5.15059,-23.326205 1.42977,-25.747901 4.39207,-1.616361 9.78141,6.457741 9.81537,14.705031 0.0105,2.54978 0.3408,4.50557 0.73399,4.3462 0.39319,-0.15936 2.92905,-1.26764 5.63523,-2.46284 l 4.92033,-2.17311 0.004,-5.21544 c 0.009,-10.141958 -3.57674,-18.963199 -10.00935,-24.625414 -5.26689,-4.6361 -9.95858,-5.490546 -15.4777,-2.818786 -7.14402,3.458365 -11.02375,11.48478 -11.66361,24.12982 -0.32589,6.44012 -0.0528,9.14206 1.41053,13.96005 1.56443,5.15055 6.17476,13.25845 7.53905,13.25845 0.24629,0 2.00405,-1.02988 3.90614,-2.28862 z m 89.28742,-4.66531 c 6.82169,-13.6841 4.83293,-31.967423 -4.62101,-42.482486 -5.19885,-5.782364 -10.23723,-8.150773 -17.33936,-8.150773 -14.10863,0 -24.76758,13.189636 -25.06015,31.010029 l -0.12737,7.75785 4.78082,1.43592 c 2.62945,0.78976 5.66093,1.9086 6.73662,2.48632 1.90387,1.0225 1.95579,0.93838 1.95579,-3.16864 0,-12.288756 7.42651,-21.68701 14.46324,-18.303231 7.9902,3.84226 10.45244,21.078651 3.99604,27.973281 -1.30809,1.39687 -1.98718,2.69656 -1.50909,2.88821 0.47808,0.19164 3.02061,1.27721 5.65006,2.41237 6.95299,3.00168 7.8018,2.70591 11.07441,-3.85885 z"
     id="path1367" />
</svg>
