<?xml version="1.0" encoding="UTF-8" standalone="no"?>
<svg
   id="Layer_1"
   data-name="Layer 1"
   viewBox="0 0 361.67651 499.33603"
   version="1.1"
   sodipodi:docname="MongoDB_Logo_RGB_Logomark_Default-Slate.svg"
   inkscape:version="1.1.1 (3bf5ae0d25, 2021-09-20)"
   xmlns:inkscape="http://www.inkscape.org/namespaces/inkscape"
   xmlns:sodipodi="http://sodipodi.sourceforge.net/DTD/sodipodi-0.dtd"
   xmlns="http://www.w3.org/2000/svg"
   xmlns:svg="http://www.w3.org/2000/svg">
  <defs
     id="defs7" />
  <sodipodi:namedview
     id="namedview5"
     pagecolor="#ffffff"
     bordercolor="#666666"
     borderopacity="1.0"
     inkscape:pageshadow="2"
     inkscape:pageopacity="0.0"
     inkscape:pagecheckerboard="0"
     showgrid="false"
     inkscape:zoom="1.6682153"
     inkscape:cx="180.73207"
     inkscape:cy="249.36829"
     inkscape:window-width="1920"
     inkscape:window-height="1011"
     inkscape:window-x="0"
     inkscape:window-y="32"
     inkscape:window-maximized="1"
     inkscape:current-layer="Layer_1" />
  <path
     d="M203.77731,148.85754c-10.8147-12.762-20.13269-25.8139-22.02478-28.49224a.426.426,0,0,0-.70032.00006c-1.89172,2.6784-11.20758,15.73022-22.02191,28.49218-92.69141,118.085,14.62982,197.75507,14.62982,197.75507l.87.60461c.8136,12.32624,2.83508,30.041,2.83508,30.041H185.442s2.01282-17.63849,2.83-29.96106l.87549-.68451S296.46774,266.94257,203.77731,148.85754ZM181.404,344.88123h-.001s-4.811-4.10383-6.10962-6.16l-.01172-.22131,5.81946-128.56055a.30281.30281,0,0,1,.605,0l5.81946,128.56036-.01135.22065C186.21652,340.77625,181.404,344.88123,181.404,344.88123Z"
     fill="#06232e"
     id="path2" />
  <path
     style="fill:#076acd;stroke-width:0.599443"
     d="m 176.62443,367.00898 c -0.54476,-5.35752 -1.16798,-12.0202 -1.38493,-14.80596 -0.36554,-4.69366 -0.52864,-5.17712 -2.22449,-6.59388 -13.51481,-11.29064 -24.72232,-24.42042 -33.54093,-39.29376 -17.16075,-28.94306 -21.93311,-59.83965 -14.11933,-91.40958 5.69506,-23.00966 17.41745,-45.05681 36.78661,-69.18723 3.99341,-4.97506 9.78167,-12.41743 12.86279,-16.5386 3.08112,-4.12117 5.79069,-7.70732 6.02126,-7.96921 0.23057,-0.26189 2.80125,2.70535 5.71261,6.59387 2.91136,3.88853 8.95527,11.6499 13.43091,17.2475 23.73633,29.68659 36.69583,57.23747 40.17927,85.41798 0.9172,7.41999 0.76767,21.98169 -0.30099,29.3115 -4.62443,31.7184 -22.77851,62.74984 -50.27039,85.92901 -1.73488,1.46272 -1.75151,1.54039 -2.80669,13.1083 -0.58381,6.40028 -1.23406,13.05305 -1.44499,14.78394 l -0.38352,3.14707 h -3.76336 -3.76336 z m 8.27794,-25.00055 2.92634,-2.97102 -2.88611,-64.61618 c -1.58735,-35.53889 -2.98178,-64.72857 -3.09873,-64.86595 -0.11695,-0.13736 -0.40326,-0.0592 -0.63625,0.17385 -0.23298,0.23298 -1.73546,29.4499 -3.33884,64.92647 l -2.91523,64.50287 2.86672,2.91049 c 1.5767,1.60077 3.15676,2.91049 3.51124,2.91049 0.35448,0 1.96137,-1.33695 3.57086,-2.97102 z"
     id="path861" />
</svg>
