<?xml version="1.0" encoding="UTF-8" standalone="no"?>
<svg
   viewBox="0 0 640 512"
   version="1.1"
   id="svg1765"
   sodipodi:docname="node-brands.svg"
   inkscape:version="1.1.1 (3bf5ae0d25, 2021-09-20)"
   xmlns:inkscape="http://www.inkscape.org/namespaces/inkscape"
   xmlns:sodipodi="http://sodipodi.sourceforge.net/DTD/sodipodi-0.dtd"
   xmlns="http://www.w3.org/2000/svg"
   xmlns:svg="http://www.w3.org/2000/svg">
  <defs
     id="defs1769" />
  <sodipodi:namedview
     id="namedview1767"
     pagecolor="#ffffff"
     bordercolor="#666666"
     borderopacity="1.0"
     inkscape:pageshadow="2"
     inkscape:pageopacity="0.0"
     inkscape:pagecheckerboard="0"
     showgrid="false"
     inkscape:zoom="0.81347656"
     inkscape:cx="437.01321"
     inkscape:cy="352.80672"
     inkscape:window-width="1920"
     inkscape:window-height="1011"
     inkscape:window-x="0"
     inkscape:window-y="32"
     inkscape:window-maximized="1"
     inkscape:current-layer="svg1765" />
  <!--! Font Awesome Pro 6.1.1 by @fontawesome - https://fontawesome.com License - https://fontawesome.com/license (Commercial License) Copyright 2022 Fonticons, Inc. -->
  <path
     d="M316.3 452c-2.1 0-4.2-.6-6.1-1.6L291 439c-2.9-1.6-1.5-2.2-.5-2.5 3.8-1.3 4.6-1.6 8.7-4 .4-.2 1-.1 1.4.1l14.8 8.8c.5.3 1.3.3 1.8 0L375 408c.5-.3.9-.9.9-1.6v-66.7c0-.7-.3-1.3-.9-1.6l-57.8-33.3c-.5-.3-1.2-.3-1.8 0l-57.8 33.3c-.6.3-.9 1-.9 1.6v66.7c0 .6.4 1.2.9 1.5l15.8 9.1c8.6 4.3 13.9-.8 13.9-5.8v-65.9c0-.9.7-1.7 1.7-1.7h7.3c.9 0 1.7.7 1.7 1.7v65.9c0 11.5-6.2 18-17.1 18-3.3 0-6 0-13.3-3.6l-15.2-8.7c-3.7-2.2-6.1-6.2-6.1-10.5v-66.7c0-4.3 2.3-8.4 6.1-10.5l57.8-33.4c3.7-2.1 8.5-2.1 12.1 0l57.8 33.4c3.7 2.2 6.1 6.2 6.1 10.5v66.7c0 4.3-2.3 8.4-6.1 10.5l-57.8 33.4c-1.7 1.1-3.8 1.7-6 1.7zm46.7-65.8c0-12.5-8.4-15.8-26.2-18.2-18-2.4-19.8-3.6-19.8-7.8 0-3.5 1.5-8.1 14.8-8.1 11.9 0 16.3 2.6 18.1 10.6.2.8.8 1.3 1.6 1.3h7.5c.5 0 .9-.2 1.2-.5.3-.4.5-.8.4-1.3-1.2-13.8-10.3-20.2-28.8-20.2-16.5 0-26.3 7-26.3 18.6 0 12.7 9.8 16.1 25.6 17.7 18.9 1.9 20.4 4.6 20.4 8.3 0 6.5-5.2 9.2-17.4 9.2-15.3 0-18.7-3.8-19.8-11.4-.1-.8-.8-1.4-1.7-1.4h-7.5c-.9 0-1.7.7-1.7 1.7 0 9.7 5.3 21.3 30.6 21.3 18.5 0 29-7.2 29-19.8zm54.5-50.1c0 6.1-5 11.1-11.1 11.1s-11.1-5-11.1-11.1c0-6.3 5.2-11.1 11.1-11.1 6-.1 11.1 4.8 11.1 11.1zm-1.8 0c0-5.2-4.2-9.3-9.4-9.3-5.1 0-9.3 4.1-9.3 9.3 0 5.2 4.2 9.4 9.3 9.4 5.2-.1 9.4-4.3 9.4-9.4zm-4.5 6.2h-2.6c-.1-.6-.5-3.8-.5-3.9-.2-.7-.4-1.1-1.3-1.1h-2.2v5h-2.4v-12.5h4.3c1.5 0 4.4 0 4.4 3.3 0 2.3-1.5 2.8-2.4 3.1 1.7.1 1.8 1.2 2.1 2.8.1 1 .3 2.7.6 3.3zm-2.8-8.8c0-1.7-1.2-1.7-1.8-1.7h-2v3.5h1.9c1.6 0 1.9-1.1 1.9-1.8zM137.3 191c0-2.7-1.4-5.1-3.7-6.4l-61.3-35.3c-1-.6-2.2-.9-3.4-1h-.6c-1.2 0-2.3.4-3.4 1L3.7 184.6C1.4 185.9 0 188.4 0 191l.1 95c0 1.3.7 2.5 1.8 3.2 1.1.7 2.5.7 3.7 0L42 268.3c2.3-1.4 3.7-3.8 3.7-6.4v-44.4c0-2.6 1.4-5.1 3.7-6.4l15.5-8.9c1.2-.7 2.4-1 3.7-1 1.3 0 2.6.3 3.7 1l15.5 8.9c2.3 1.3 3.7 3.8 3.7 6.4v44.4c0 2.6 1.4 5.1 3.7 6.4l36.4 20.9c1.1.7 2.6.7 3.7 0 1.1-.6 1.8-1.9 1.8-3.2l.2-95zM472.5 87.3v176.4c0 2.6-1.4 5.1-3.7 6.4l-61.3 35.4c-2.3 1.3-5.1 1.3-7.4 0l-61.3-35.4c-2.3-1.3-3.7-3.8-3.7-6.4v-70.8c0-2.6 1.4-5.1 3.7-6.4l61.3-35.4c2.3-1.3 5.1-1.3 7.4 0l15.3 8.8c1.7 1 3.9-.3 3.9-2.2v-94c0-2.8 3-4.6 5.5-3.2l36.5 20.4c2.3 1.2 3.8 3.7 3.8 6.4zm-46 128.9c0-.7-.4-1.3-.9-1.6l-21-12.2c-.6-.3-1.3-.3-1.9 0l-21 12.2c-.6.3-.9.9-.9 1.6v24.3c0 .7.4 1.3.9 1.6l21 12.1c.6.3 1.3.3 1.8 0l21-12.1c.6-.3.9-.9.9-1.6v-24.3zm209.8-.7c2.3-1.3 3.7-3.8 3.7-6.4V192c0-2.6-1.4-5.1-3.7-6.4l-60.9-35.4c-2.3-1.3-5.1-1.3-7.4 0l-61.3 35.4c-2.3 1.3-3.7 3.8-3.7 6.4v70.8c0 2.7 1.4 5.1 3.7 6.4l60.9 34.7c2.2 1.3 5 1.3 7.3 0l36.8-20.5c2.5-1.4 2.5-5 0-6.4L550 241.6c-1.2-.7-1.9-1.9-1.9-3.2v-22.2c0-1.3.7-2.5 1.9-3.2l19.2-11.1c1.1-.7 2.6-.7 3.7 0l19.2 11.1c1.1.7 1.9 1.9 1.9 3.2v17.4c0 2.8 3.1 4.6 5.6 3.2l36.7-21.3zM559 219c-.4.3-.7.7-.7 1.2v13.6c0 .5.3 1 .7 1.2l11.8 6.8c.4.3 1 .3 1.4 0L584 235c.4-.3.7-.7.7-1.2v-13.6c0-.5-.3-1-.7-1.2l-11.8-6.8c-.4-.3-1-.3-1.4 0L559 219zm-254.2 43.5v-70.4c0-2.6-1.6-5.1-3.9-6.4l-61.1-35.2c-2.1-1.2-5-1.4-7.4 0l-61.1 35.2c-2.3 1.3-3.9 3.7-3.9 6.4v70.4c0 2.8 1.9 5.2 4 6.4l61.2 35.2c2.4 1.4 5.2 1.3 7.4 0l61-35.2c1.8-1 3.1-2.7 3.6-4.7.1-.5.2-1.1.2-1.7zm-74.3-124.9l-.8.5h1.1l-.3-.5zm76.2 130.2l-.4-.7v.9l.4-.2z"
     id="path1763" />
  <path
     style="fill:#076acd;stroke-width:0.614646"
     d="M 202.52581,286.42011 C 184.56172,276.06797 170.45725,267.55105 169.4886,266.47075 l -1.69028,-1.8851 v -37.08548 -37.08549 l 1.38295,-1.95994 c 2.04919,-2.90414 63.8038,-38.40906 66.8508,-38.4349 1.7245,-0.0146 8.47002,3.60769 33.4982,17.98841 17.23638,9.9037 32.0995,18.82182 33.02915,19.81806 l 1.69028,1.81133 -0.003,37.63737 -0.003,37.63735 -1.3799,1.6675 c -0.75895,0.91712 -15.55097,9.83716 -32.87116,19.82233 -26.46374,15.25644 -31.86074,18.14903 -33.80553,18.11851 -1.87865,-0.0295 -8.21462,-3.43653 -33.66119,-18.10059 z"
     id="path1865" />
  <path
     style="fill:#076acd;stroke-width:0.614646"
     d="M 1.2792842,288.055 C 0.4361125,286.47951 0.27326743,189.56066 1.1111613,187.99504 c 0.3404028,-0.63605 1.1285668,-1.60425 1.7514754,-2.15155 1.0330345,-0.90766 57.9637373,-33.93082 62.8506023,-36.45706 1.732392,-0.89555 2.481154,-0.96684 4.302521,-0.40966 1.212819,0.37102 16.311251,8.79427 33.55207,18.71834 27.19225,15.65227 31.48937,18.32122 32.42161,20.13712 0.99627,1.94062 1.07408,5.59097 1.06657,50.03572 -0.009,51.44719 0.0286,50.82905 -3.09307,51.19677 -2.05876,0.24251 -38.97378,-20.95723 -40.795044,-23.42799 -1.231695,-1.67094 -1.289551,-2.63636 -1.585663,-26.45825 -0.266738,-21.45889 -0.439312,-24.9232 -1.306774,-26.23217 -0.549696,-0.82947 -5.113442,-3.85472 -10.141657,-6.72276 -11.929981,-6.80475 -11.240551,-6.81128 -23.439982,0.22185 -5.159335,2.97443 -9.723081,6.00609 -10.141656,6.73702 -0.555893,0.97073 -0.843893,8.07786 -1.06837,26.36478 l -0.307323,25.03579 -1.843938,1.81583 c -2.528508,2.48998 -38.1285017,22.79206 -39.9662033,22.79206 -0.8135276,0 -1.752698,-0.51115 -2.0870455,-1.13588 z"
     id="path1904" />
  <path
     style="fill:#076acd;stroke-width:0.614646"
     d="m 401.57311,305.58316 c -1.06804,-0.39534 -15.83299,-8.73994 -32.811,-18.54354 -23.2457,-13.42276 -31.15209,-18.28011 -32.01499,-19.66867 -1.08547,-1.74671 -1.14601,-3.82849 -1.14818,-39.4813 l -0.002,-37.63736 1.69027,-1.77478 c 0.92966,-0.97612 15.7964,-9.89236 33.03722,-19.81387 24.83881,-14.29389 31.79798,-18.03996 33.51941,-18.04328 1.61015,-0.003 4.42538,1.30474 10.87631,5.05267 4.78712,2.78128 9.09101,5.05686 9.5642,5.05686 0.4732,0 1.31811,-0.50581 1.87759,-1.12403 0.92818,-1.02562 1.01723,-5.30683 1.01723,-48.90475 0,-31.761047 0.21333,-48.179328 0.63627,-48.969609 0.36973,-0.690852 1.28282,-1.188884 2.17969,-1.188884 0.85728,0 10.14745,4.813511 20.8974,10.82756 14.94203,8.359298 19.55935,11.224704 20.25488,12.569717 0.77944,1.507249 0.9006,13.867036 0.89861,91.664636 -0.002,86.82255 -0.042,89.98605 -1.15355,91.76642 -0.86745,1.38937 -8.93549,6.32796 -32.7276,20.03318 -17.36698,10.00408 -32.26781,18.34867 -33.11295,18.54354 -0.84514,0.19487 -2.41047,0.0309 -3.47851,-0.36451 z m 13.70517,-57.15372 10.97862,-6.34127 V 228.3159 214.54363 l -10.7563,-6.28708 c -5.91597,-3.4579 -11.20097,-6.3002 -11.74445,-6.31623 -0.54348,-0.0161 -5.937,2.85016 -11.9856,6.36931 l -10.99744,6.39848 v 13.65534 13.65534 l 11.06362,6.36075 c 6.085,3.49841 11.37847,6.3676 11.76328,6.37596 0.38481,0.008 5.64003,-2.83837 11.67827,-6.32606 z"
     id="path1943" />
  <path
     style="fill:#076acd;stroke-width:0.614646"
     d="m 538.12245,286.74186 c -17.24082,-9.82823 -32.10756,-18.69573 -33.03722,-19.70554 l -1.69027,-1.83602 v -37.8525 -37.85248 l 1.9976,-1.95884 c 1.09868,-1.07736 16.01925,-10.0389 33.15682,-19.91453 23.70786,-13.66179 31.64507,-17.95471 33.19088,-17.9516 1.54431,0.003 9.62473,4.41483 33.68591,18.39178 18.46131,10.72403 32.16661,19.0658 32.88355,20.01468 1.09117,1.44416 1.25117,2.75879 1.42398,11.70016 0.21071,10.90153 -0.26692,13.20338 -3.11407,15.00772 -7.1905,4.55689 -38.26452,22.16129 -39.1175,22.16129 -0.60782,0 -1.56288,-0.50581 -2.12235,-1.12403 -0.85584,-0.94569 -1.01723,-2.65872 -1.01723,-10.79671 0,-5.31997 -0.26855,-10.17446 -0.59677,-10.78775 -0.80431,-1.50287 -20.86603,-12.94097 -22.69766,-12.94097 -1.5318,0 -20.37712,10.48066 -22.29641,12.39996 -1.01091,1.01091 -1.12225,2.32827 -1.12225,13.2784 0,9.77388 0.17946,12.41237 0.91573,13.46354 0.50365,0.71906 15.05798,9.41503 32.34294,19.32436 20.56799,11.79147 31.63754,18.47859 32.03592,19.35292 0.40287,0.88421 0.40111,1.70687 -0.005,2.43292 -0.90559,1.61819 -38.73302,22.4974 -41.31821,22.80597 -1.89924,0.2267 -5.82348,-1.83659 -33.49819,-17.61273 z"
     id="path1982" />
  <path
     style="fill:#076acd;stroke-width:0.614646"
     d="m 402.59304,336.21128 v -5.83913 h 3.25762 c 1.79169,0 3.58953,0.33191 3.9952,0.73757 1.1634,1.1634 0.86831,3.45173 -0.54247,4.20676 -1.14933,0.6151 -1.17928,0.75874 -0.29329,1.40659 0.54272,0.39685 1.15493,1.75785 1.36047,3.02444 0.3038,1.87215 0.18621,2.30291 -0.62868,2.30291 -0.65042,0 -1.00239,-0.52191 -1.00239,-1.48634 0,-2.55036 -0.64784,-3.43083 -2.52435,-3.43083 -1.66477,0 -1.77818,0.1568 -1.77818,2.45859 0,1.77564 -0.2561,2.45858 -0.92196,2.45858 -0.75483,0 -0.92197,-1.05856 -0.92197,-5.83914 z m 5.83913,-2.7659 c 0,-1.28435 -0.32795,-1.56824 -1.9976,-1.72922 -1.86884,-0.18019 -1.9976,-0.0687 -1.9976,1.72922 0,1.79795 0.12876,1.90941 1.9976,1.72922 1.66965,-0.16099 1.9976,-0.44488 1.9976,-1.72922 z"
     id="path2021" />
  <path
     style="fill:#076acd;stroke-width:0.153661"
     d="m 405.16409,347.03063 c -3.52801,-0.39017 -6.81065,-2.6468 -8.47394,-5.82535 -0.95259,-1.82039 -1.2436,-3.0535 -1.23295,-5.22449 0.009,-1.73636 0.0548,-2.05002 0.48168,-3.26703 0.58435,-1.66575 1.24387,-2.77747 2.39722,-4.04089 3.45878,-3.78888 9.20612,-4.67764 13.63026,-2.10777 1.4926,0.86701 3.31666,2.76988 4.11263,4.29033 1.72496,3.29494 1.72798,7.06657 0.008,10.39391 -0.95915,1.85584 -2.79066,3.65426 -4.68759,4.60286 -2.01852,1.00942 -4.13949,1.41025 -6.23563,1.17843 z m 3.35105,-1.75563 c 3.13282,-0.79635 5.77717,-3.25121 6.78392,-6.29781 0.51485,-1.55801 0.57742,-3.9228 0.1423,-5.37815 -1.21213,-4.05424 -4.49206,-6.61769 -8.70486,-6.80335 -2.81935,-0.12425 -5.04099,0.7185 -6.99773,2.65449 -1.74604,1.72752 -2.60914,3.61603 -2.77399,6.06963 -0.29703,4.42107 2.66175,8.57763 6.94165,9.75174 1.04627,0.28702 3.48596,0.28885 4.60871,0.003 z"
     id="path2171" />
  <path
     style="fill:#076acd;stroke-width:0.614646"
     d="m 306.36759,447.60343 c -10.71287,-6.13681 -16.83456,-9.90797 -16.54828,-10.19425 0.23097,-0.23097 3.63786,-1.72554 8.94353,-3.92344 1.41087,-0.58446 2.37512,-0.18067 8.93376,3.74107 4.0437,2.41793 7.92416,4.39624 8.62324,4.39624 0.69909,0 14.3807,-7.57903 30.40359,-16.84227 L 375.85594,407.9385 V 373.05064 338.1628 l -29.16725,-16.80289 c -16.042,-9.24159 -29.73323,-16.79727 -30.42497,-16.79041 -0.69175,0.007 -14.39577,7.58258 -30.4534,16.83494 l -29.19567,16.82247 v 34.61815 34.61814 l 2.45858,1.62746 c 1.35222,0.89509 5.58348,3.36771 9.40279,5.4947 7.81284,4.351 11.38289,5.18003 14.76814,3.42946 4.25786,-2.20183 4.06944,-0.53313 4.4101,-39.05806 l 0.30732,-34.75508 h 4.60985 4.60984 v 36.87875 c 0,34.80389 -0.0645,36.99979 -1.1458,39.03001 -2.99977,5.63213 -7.11802,8.08458 -14.22034,8.46833 -6.33853,0.34248 -9.34043,-0.69813 -20.92158,-7.2524 -9.93996,-5.62546 -11.53513,-6.90417 -13.20668,-10.58671 -1.12725,-2.48343 -1.18756,-4.3561 -1.20038,-37.27099 -0.01,-25.61977 0.18298,-35.31199 0.74005,-37.17132 0.41446,-1.38333 1.72826,-3.45719 2.91957,-4.60859 1.81722,-1.75633 51.26699,-30.81325 60.38328,-35.48149 4.98223,-2.55129 7.63436,-2.14039 15.86194,2.45747 22.50391,12.57599 54.07354,31.21035 55.93315,33.01521 1.1913,1.15624 2.50511,3.23407 2.91956,4.6174 1.03642,3.45925 1.08002,69.98062 0.0481,73.42477 -0.38799,1.29501 -1.4252,3.1887 -2.30492,4.20821 -1.29785,1.50409 -52.37508,31.62821 -61.65663,36.36359 -4.3108,2.19934 -7.39511,1.64476 -14.96302,-2.69049 z"
     id="path2531" />
  <path
     style="fill:#076acd;stroke-width:0.614646"
     d="m 327.60624,405.33391 c -14.38367,-1.29053 -23.33513,-8.37872 -23.58748,-18.67769 l -0.0764,-3.1172 h 4.877 4.877 l 0.74926,2.93708 c 0.41209,1.61539 1.19483,3.61711 1.73943,4.44827 2.39812,3.66001 10.28804,5.58853 20.63128,5.04287 10.56492,-0.55734 14.76108,-3.12722 14.76108,-9.04019 0,-5.35966 -3.28549,-6.8122 -20.19589,-8.92876 -13.86529,-1.73543 -20.05549,-4.13811 -23.30407,-9.04531 -1.40975,-2.12954 -1.70907,-3.32217 -1.88114,-7.49544 -0.18515,-4.49042 -0.0363,-5.28373 1.56288,-8.33226 3.12282,-5.95286 9.07078,-9.23568 18.96026,-10.46459 5.89838,-0.73296 14.82858,-0.0458 19.13047,1.47195 8.60137,3.03474 13.19074,8.34398 14.13986,16.35776 l 0.3639,3.07263 h -4.90549 -4.90549 l -0.70245,-2.30493 c -1.18237,-3.87967 -2.91663,-6.06178 -6.03951,-7.59917 -2.71284,-1.33551 -3.75012,-1.4663 -11.58467,-1.46063 -9.58746,0.007 -12.24491,0.70791 -14.24271,3.75694 -1.56906,2.39469 -1.51059,6.80895 0.10585,7.99172 1.95999,1.43415 6.64922,2.56355 17.51741,4.21904 20.88276,3.18095 26.171,6.50642 26.89013,16.90963 0.9817,14.20159 -12.84998,22.2349 -34.88053,20.25828 z"
     id="path2570" />
  <path
     style="fill:#076acd;stroke-width:0.614646"
     d="m 564.99492,238.02812 -6.31841,-3.69743 0.17195,-7.45106 0.17195,-7.45106 6.28136,-3.60343 6.28136,-3.60344 6.31888,3.69737 6.31888,3.69737 0.17155,7.30739 0.17155,7.30739 -6.31801,3.61174 c -3.4749,1.98646 -6.4563,3.67268 -6.62533,3.74716 -0.16903,0.0745 -3.15061,-1.52842 -6.62573,-3.562 z"
     id="path2609" />
</svg>
