<?xml version="1.0" encoding="UTF-8" standalone="no"?>
<svg
   viewBox="0 0 448 512"
   version="1.1"
   id="svg2711"
   sodipodi:docname="node-js-brands.svg"
   inkscape:version="1.1.1 (3bf5ae0d25, 2021-09-20)"
   xmlns:inkscape="http://www.inkscape.org/namespaces/inkscape"
   xmlns:sodipodi="http://sodipodi.sourceforge.net/DTD/sodipodi-0.dtd"
   xmlns="http://www.w3.org/2000/svg"
   xmlns:svg="http://www.w3.org/2000/svg">
  <defs
     id="defs2715" />
  <sodipodi:namedview
     id="namedview2713"
     pagecolor="#ffffff"
     bordercolor="#666666"
     borderopacity="1.0"
     inkscape:pageshadow="2"
     inkscape:pageopacity="0.0"
     inkscape:pagecheckerboard="0"
     showgrid="false"
     inkscape:zoom="1.6269531"
     inkscape:cx="224.03842"
     inkscape:cy="255.07803"
     inkscape:window-width="1920"
     inkscape:window-height="1011"
     inkscape:window-x="0"
     inkscape:window-y="32"
     inkscape:window-maximized="1"
     inkscape:current-layer="svg2711" />
  <!--! Font Awesome Pro 6.1.1 by @fontawesome - https://fontawesome.com License - https://fontawesome.com/license (Commercial License) Copyright 2022 Fonticons, Inc. -->
  <path
     d="M224 508c-6.7 0-13.5-1.8-19.4-5.2l-61.7-36.5c-9.2-5.2-4.7-7-1.7-8 12.3-4.3 14.8-5.2 27.9-12.7 1.4-.8 3.2-.5 4.6.4l47.4 28.1c1.7 1 4.1 1 5.7 0l184.7-106.6c1.7-1 2.8-3 2.8-5V149.3c0-2.1-1.1-4-2.9-5.1L226.8 37.7c-1.7-1-4-1-5.7 0L36.6 144.3c-1.8 1-2.9 3-2.9 5.1v213.1c0 2 1.1 4 2.9 4.9l50.6 29.2c27.5 13.7 44.3-2.4 44.3-18.7V167.5c0-3 2.4-5.3 5.4-5.3h23.4c2.9 0 5.4 2.3 5.4 5.3V378c0 36.6-20 57.6-54.7 57.6-10.7 0-19.1 0-42.5-11.6l-48.4-27.9C8.1 389.2.7 376.3.7 362.4V149.3c0-13.8 7.4-26.8 19.4-33.7L204.6 9c11.7-6.6 27.2-6.6 38.8 0l184.7 106.7c12 6.9 19.4 19.8 19.4 33.7v213.1c0 13.8-7.4 26.7-19.4 33.7L243.4 502.8c-5.9 3.4-12.6 5.2-19.4 5.2zm149.1-210.1c0-39.9-27-50.5-83.7-58-57.4-7.6-63.2-11.5-63.2-24.9 0-11.1 4.9-25.9 47.4-25.9 37.9 0 51.9 8.2 57.7 33.8.5 2.4 2.7 4.2 5.2 4.2h24c1.5 0 2.9-.6 3.9-1.7s1.5-2.6 1.4-4.1c-3.7-44.1-33-64.6-92.2-64.6-52.7 0-84.1 22.2-84.1 59.5 0 40.4 31.3 51.6 81.8 56.6 60.5 5.9 65.2 14.8 65.2 26.7 0 20.6-16.6 29.4-55.5 29.4-48.9 0-59.6-12.3-63.2-36.6-.4-2.6-2.6-4.5-5.3-4.5h-23.9c-3 0-5.3 2.4-5.3 5.3 0 31.1 16.9 68.2 97.8 68.2 58.4-.1 92-23.2 92-63.4z"
     id="path2709" />
  <path
     style="fill:#076acd;stroke-width:0.614646"
     d="m 219.68297,507.26967 c -2.39549,-0.24273 -6.18655,-1.10598 -8.42457,-1.91834 -4.62189,-1.67765 -70.16682,-40.20077 -72.34589,-42.52029 -1.77648,-1.89097 -1.10316,-2.8821 2.96544,-4.36511 10.16596,-3.70554 15.97997,-6.22206 21.92517,-9.49008 3.71861,-2.04407 7.2268,-3.59728 7.79598,-3.45159 0.56918,0.1457 11.85011,6.67932 25.06873,14.51915 13.21862,7.83984 24.78462,14.46448 25.70222,14.72144 0.9176,0.25695 2.35984,0.27458 3.20498,0.0392 1.22902,-0.34234 171.41345,-98.20848 184.53342,-106.11767 2.90317,-1.75013 3.63161,-2.53576 4.15567,-4.482 0.42901,-1.5932 0.58332,-37.21159 0.47498,-109.63329 -0.15888,-106.21008 -0.17265,-107.2891 -1.38976,-108.86019 -1.77013,-2.28495 -186.23158,-108.588325 -189.0036,-108.920975 -1.93018,-0.231626 -11.75249,5.29257 -95.57743,53.754045 -82.665627,47.79124 -93.549951,54.25339 -94.500848,56.10629 -1.011338,1.97066 -1.073098,8.41536 -1.047908,109.34978 0.02057,82.42147 0.198758,107.65814 0.769568,108.9938 0.742079,1.7364 4.520646,4.02892 45.10143,27.36382 10.87676,6.25438 16.077611,8.35504 23.105818,9.33257 11.9638,1.66401 22.39678,-3.41069 27.2237,-13.24185 l 1.80682,-3.68003 0.30732,-109.61393 0.30733,-109.61393 1.72455,-1.48331 c 1.70893,-1.46987 1.8459,-1.48331 15.12273,-1.48331 H 162.087 l 1.64069,1.52054 1.64069,1.52054 -0.19263,112.34261 -0.19263,112.3426 -1.34744,5.45096 c -5.20334,21.04965 -18.02029,33.75816 -38.55525,38.22903 -7.07736,1.54089 -22.85137,1.5536 -29.502999,0.0238 C 83.146686,431.14492 74.741895,427.13887 43.397906,409.13316 19.781151,395.56639 16.576428,393.53959 12.647722,389.68547 9.5143479,386.61159 7.5246212,383.95878 5.679944,380.39569 0.91507338,371.19208 1.2485174,380.5549 1.2383769,255.68032 1.2293404,144.40157 1.2361081,143.77782 2.5021093,139.20931 4.4539544,132.16584 7.0435797,127.82358 12.577791,122.31453 l 4.939616,-4.91717 94.963613,-54.799124 C 170.51567,29.109109 208.99793,7.2632083 211.439,6.4210241 c 8.32049,-2.8706282 21.1703,-2.2104892 28.82171,1.4806699 1.68652,0.8136093 45.19369,25.782974 96.68256,55.487477 93.19516,53.765309 93.63858,54.030299 98.60164,58.925359 4.04956,3.99406 5.45126,5.89797 7.46652,10.14165 4.44999,9.37068 4.14343,0.23019 4.14343,123.54382 0,104.40941 -0.0691,111.81424 -1.07796,115.55342 -2.53817,9.40709 -8.84261,18.23913 -16.56407,23.205 -2.12881,1.36909 -34.43384,20.11683 -71.78894,41.66165 -37.3551,21.54481 -78.96136,45.54903 -92.45836,53.34272 -13.49699,7.79368 -26.31359,14.81412 -28.48133,15.60096 -4.86084,1.76439 -11.35499,2.48816 -17.10123,1.90592 z"
     id="path2811" />
  <path
     style="fill:#076acd;stroke-width:0.614646"
     d="m 264.97668,360.42543 c -44.63025,-3.20802 -71.4945,-20.01503 -79.11006,-49.49342 -1.87452,-7.2559 -2.66888,-17.96975 -1.49496,-20.16322 1.34904,-2.52071 3.04441,-2.80721 16.61218,-2.80721 16.01451,0 15.31838,-0.37636 17.5339,9.47975 1.929,8.58147 4.14592,13.26842 8.50085,17.97226 6.1655,6.65948 16.13581,10.69082 31.1768,12.60586 8.42683,1.07291 38.38204,1.05624 45.13234,-0.0251 20.55614,-3.29298 30.19694,-9.78283 32.8071,-22.0846 4.21587,-19.86948 -7.81503,-26.84192 -55.85632,-32.37118 -38.55964,-4.43799 -50.44187,-7.00573 -64.23049,-13.88013 -14.16166,-7.06039 -22.04438,-16.88997 -25.00936,-31.18611 -1.61514,-7.78765 -1.28738,-20.13751 0.72124,-27.17577 7.13581,-25.00412 30.15528,-40.01219 66.91747,-43.62837 8.18833,-0.80546 22.95901,-0.7906 32.35744,0.0326 45.19708,3.95854 68.35747,22.16989 73.73269,57.97708 1.14315,7.61507 0.51709,9.75424 -3.15298,10.77334 -3.02625,0.84034 -23.1514,0.8523 -26.16431,0.0155 -2.6653,-0.7402 -3.22514,-1.61062 -4.86706,-7.56703 -6.10237,-22.13762 -20.6449,-29.89604 -56.03772,-29.89604 -12.88655,0 -19.58879,0.62611 -27.15047,2.53633 -9.74569,2.46194 -16.33464,6.93001 -19.38732,13.14686 -1.16394,2.3704 -1.55388,4.28759 -1.72348,8.47389 -0.28643,7.06984 0.17014,9.20585 2.54808,11.9209 5.14733,5.87703 17.20125,8.9726 56.97808,14.63252 39.20758,5.57892 55.08155,9.87819 67.85583,18.3779 13.23839,8.80852 18.89339,20.77855 18.87513,39.95327 -0.0222,23.29276 -11.1162,40.59444 -32.94944,51.38636 -18.79337,9.28934 -44.87186,13.13175 -74.61516,10.9938 z"
     id="path2850" />
</svg>
