<?xml version="1.0" encoding="UTF-8" standalone="no"?>
<svg
   viewBox="0 0 512 512"
   version="1.1"
   id="svg2953"
   sodipodi:docname="redhat-brands.svg"
   inkscape:version="1.1.1 (3bf5ae0d25, 2021-09-20)"
   xmlns:inkscape="http://www.inkscape.org/namespaces/inkscape"
   xmlns:sodipodi="http://sodipodi.sourceforge.net/DTD/sodipodi-0.dtd"
   xmlns="http://www.w3.org/2000/svg"
   xmlns:svg="http://www.w3.org/2000/svg">
  <defs
     id="defs2957" />
  <sodipodi:namedview
     id="namedview2955"
     pagecolor="#ffffff"
     bordercolor="#666666"
     borderopacity="1.0"
     inkscape:pageshadow="2"
     inkscape:pageopacity="0.0"
     inkscape:pagecheckerboard="0"
     showgrid="false"
     inkscape:zoom="1.6269531"
     inkscape:cx="256"
     inkscape:cy="255.07803"
     inkscape:window-width="1920"
     inkscape:window-height="1011"
     inkscape:window-x="0"
     inkscape:window-y="32"
     inkscape:window-maximized="1"
     inkscape:current-layer="svg2953" />
  <!--! Font Awesome Pro 6.1.1 by @fontawesome - https://fontawesome.com License - https://fontawesome.com/license (Commercial License) Copyright 2022 Fonticons, Inc. -->
  <path
     d="M341.52 285.56c33.65 0 82.34-6.94 82.34-47 .22-6.74.86-1.82-20.88-96.24-4.62-19.15-8.68-27.84-42.31-44.65-26.09-13.34-82.92-35.37-99.73-35.37-15.66 0-20.2 20.17-38.87 20.17-18 0-31.31-15.06-48.12-15.06-16.14 0-26.66 11-34.78 33.62-27.5 77.55-26.28 74.27-26.12 78.27 0 24.8 97.64 106.11 228.47 106.11M429 254.84c4.65 22 4.65 24.35 4.65 27.25 0 37.66-42.33 58.56-98 58.56-125.74.08-235.91-73.65-235.91-122.33a49.55 49.55 0 0 1 4.06-19.72C58.56 200.86 0 208.93 0 260.63c0 84.67 200.63 189 359.49 189 121.79 0 152.51-55.08 152.51-98.58 0-34.21-29.59-73.05-82.93-96.24"
     id="path2951" />
  <path
     style="fill:#076acd;stroke-width:0.614646"
     d="m 330.06483,284.84986 c -62.07318,-2.37883 -124.13967,-22.98337 -173.63433,-57.64231 -25.3703,-17.76571 -43.01585,-37.61899 -42.96946,-48.34561 0.0159,-3.66608 0.58743,-5.42931 15.74063,-48.55702 12.75537,-36.303196 16.17146,-44.281506 21.86041,-51.055112 7.07355,-8.422193 14.29491,-11.73936 24.33273,-11.177359 6.49119,0.363432 10.54209,1.724045 24.05777,8.080508 10.80478,5.081516 17.1009,6.757448 24.02166,6.394202 6.96266,-0.365447 10.92488,-2.419109 19.88361,-10.305897 8.79995,-7.747003 12.23093,-9.535822 18.15579,-9.46594 15.449,0.182217 74.48854,21.803328 105.60938,38.675648 21.64851,11.73685 29.64352,20.01826 33.93892,35.15474 1.46543,5.16396 19.46234,82.72027 21.4594,92.47762 2.77264,13.5467 -0.42773,26.07988 -9.01055,35.28678 -11.40652,12.23594 -30.57885,18.71551 -60.70407,20.51582 -5.57791,0.33334 -10.27995,0.56494 -10.44898,0.51467 -0.16902,-0.0503 -5.70084,-0.29811 -12.29291,-0.55074 z"
     id="path3053" />
  <path
     style="fill:#076acd;stroke-width:0.614646"
     d="M 344.81633,448.97153 C 258.30388,445.7101 154.39559,411.93459 80.613478,363.09208 63.671355,351.87669 50.292041,341.22928 37.588726,328.85249 17.886562,309.65676 6.7164646,292.425 2.148965,274.1807 0.5887126,267.94846 0.4916846,266.82715 0.79273698,258.50723 1.1516067,248.58946 2.010534,244.58946 5.2285245,237.84989 14.319194,218.81092 37.686235,206.36682 73.142857,201.68216 c 6.877021,-0.90861 15.744258,-1.7937 25.267046,-2.52203 l 4.676417,-0.35767 -1.49969,5.08856 c -1.858035,6.3045 -2.50423,15.98958 -1.43428,21.49684 4.24136,21.83111 28.83327,48.0511 65.73846,70.09058 10.10401,6.03403 31.16871,16.27826 43.08878,20.95501 30.65914,12.0289 60.37764,19.27418 94.06004,22.93158 12.68087,1.37696 45.96514,1.58321 55.91355,0.34648 31.14775,-3.8721 54.90917,-14.86586 66.13649,-30.59952 3.20446,-4.49065 6.50785,-11.46276 7.69134,-16.23324 1.51599,-6.11082 1.06188,-16.29345 -1.21539,-27.25312 -1.11263,-5.35465 -1.91712,-9.84156 -1.78777,-9.97091 0.12936,-0.12936 4.2304,1.77887 9.11342,4.2405 17.98025,9.06419 30.55048,18.00616 43.29841,30.80076 14.76181,14.81587 23.33041,28.8728 27.7445,45.5153 1.61821,6.10118 1.63261,24.76242 0.0249,32.26891 -5.35927,25.02265 -20.67417,45.141 -44.73289,58.76316 -28.43533,16.10022 -70.12806,23.62375 -120.40985,21.72818 z"
     id="path3092" />
</svg>
