<?xml version="1.0" encoding="UTF-8" standalone="no"?>
<svg
   viewBox="0 0 640 512"
   version="1.1"
   id="svg3171"
   sodipodi:docname="sass-brands.svg"
   inkscape:version="1.1.1 (3bf5ae0d25, 2021-09-20)"
   xmlns:inkscape="http://www.inkscape.org/namespaces/inkscape"
   xmlns:sodipodi="http://sodipodi.sourceforge.net/DTD/sodipodi-0.dtd"
   xmlns="http://www.w3.org/2000/svg"
   xmlns:svg="http://www.w3.org/2000/svg">
  <defs
     id="defs3175" />
  <sodipodi:namedview
     id="namedview3173"
     pagecolor="#ffffff"
     bordercolor="#666666"
     borderopacity="1.0"
     inkscape:pageshadow="2"
     inkscape:pageopacity="0.0"
     inkscape:pagecheckerboard="0"
     showgrid="false"
     inkscape:zoom="1.6269531"
     inkscape:cx="319.92317"
     inkscape:cy="255.07803"
     inkscape:window-width="1920"
     inkscape:window-height="1011"
     inkscape:window-x="0"
     inkscape:window-y="32"
     inkscape:window-maximized="1"
     inkscape:current-layer="svg3171" />
  <!--! Font Awesome Pro 6.1.1 by @fontawesome - https://fontawesome.com License - https://fontawesome.com/license (Commercial License) Copyright 2022 Fonticons, Inc. -->
  <path
     d="M301.84 378.92c-.3.6-.6 1.08 0 0zm249.13-87a131.16 131.16 0 0 0-58 13.5c-5.9-11.9-12-22.3-13-30.1-1.2-9.1-2.5-14.5-1.1-25.3s7.7-26.1 7.6-27.2-1.4-6.6-14.3-6.7-24 2.5-25.29 5.9a122.83 122.83 0 0 0-5.3 19.1c-2.3 11.7-25.79 53.5-39.09 75.3-4.4-8.5-8.1-16-8.9-22-1.2-9.1-2.5-14.5-1.1-25.3s7.7-26.1 7.6-27.2-1.4-6.6-14.29-6.7-24 2.5-25.3 5.9-2.7 11.4-5.3 19.1-33.89 77.3-42.08 95.4c-4.2 9.2-7.8 16.6-10.4 21.6-.4.8-.7 1.3-.9 1.7.3-.5.5-1 .5-.8-2.2 4.3-3.5 6.7-3.5 6.7v.1c-1.7 3.2-3.6 6.1-4.5 6.1-.6 0-1.9-8.4.3-19.9 4.7-24.2 15.8-61.8 15.7-63.1-.1-.7 2.1-7.2-7.3-10.7-9.1-3.3-12.4 2.2-13.2 2.2s-1.4 2-1.4 2 10.1-42.4-19.39-42.4c-18.4 0-44 20.2-56.58 38.5-7.9 4.3-25 13.6-43 23.5-6.9 3.8-14 7.7-20.7 11.4-.5-.5-.9-1-1.4-1.5-35.79-38.2-101.87-65.2-99.07-116.5 1-18.7 7.5-67.8 127.07-127.4 98-48.8 176.35-35.4 189.84-5.6 19.4 42.5-41.89 121.6-143.66 133-38.79 4.3-59.18-10.7-64.28-16.3-5.3-5.9-6.1-6.2-8.1-5.1-3.3 1.8-1.2 7 0 10.1 3 7.9 15.5 21.9 36.79 28.9 18.7 6.1 64.18 9.5 119.17-11.8 61.78-23.8 109.87-90.1 95.77-145.6C386.52 18.32 293-.18 204.57 31.22c-52.69 18.7-109.67 48.1-150.66 86.4-48.69 45.6-56.48 85.3-53.28 101.9 11.39 58.9 92.57 97.3 125.06 125.7-1.6.9-3.1 1.7-4.5 2.5-16.29 8.1-78.18 40.5-93.67 74.7-17.5 38.8 2.9 66.6 16.29 70.4 41.79 11.6 84.58-9.3 107.57-43.6s20.2-79.1 9.6-99.5c-.1-.3-.3-.5-.4-.8 4.2-2.5 8.5-5 12.8-7.5 8.29-4.9 16.39-9.4 23.49-13.3-4 10.8-6.9 23.8-8.4 42.6-1.8 22 7.3 50.5 19.1 61.7 5.2 4.9 11.49 5 15.39 5 13.8 0 20-11.4 26.89-25 8.5-16.6 16-35.9 16-35.9s-9.4 52.2 16.3 52.2c9.39 0 18.79-12.1 23-18.3v.1s.2-.4.7-1.2c1-1.5 1.5-2.4 1.5-2.4v-.3c3.8-6.5 12.1-21.4 24.59-46 16.2-31.8 31.69-71.5 31.69-71.5a201.24 201.24 0 0 0 6.2 25.8c2.8 9.5 8.7 19.9 13.4 30-3.8 5.2-6.1 8.2-6.1 8.2a.31.31 0 0 0 .1.2c-3 4-6.4 8.3-9.9 12.5-12.79 15.2-28 32.6-30 37.6-2.4 5.9-1.8 10.3 2.8 13.7 3.4 2.6 9.4 3 15.69 2.5 11.5-.8 19.6-3.6 23.5-5.4a82.2 82.2 0 0 0 20.19-10.6c12.5-9.2 20.1-22.4 19.4-39.8-.4-9.6-3.5-19.2-7.3-28.2 1.1-1.6 2.3-3.3 3.4-5C434.8 301.72 450.1 270 450.1 270a201.24 201.24 0 0 0 6.2 25.8c2.4 8.1 7.09 17 11.39 25.7-18.59 15.1-30.09 32.6-34.09 44.1-7.4 21.3-1.6 30.9 9.3 33.1 4.9 1 11.9-1.3 17.1-3.5a79.46 79.46 0 0 0 21.59-11.1c12.5-9.2 24.59-22.1 23.79-39.6-.3-7.9-2.5-15.8-5.4-23.4 15.7-6.6 36.09-10.2 62.09-7.2 55.68 6.5 66.58 41.3 64.48 55.8s-13.8 22.6-17.7 25-5.1 3.3-4.8 5.1c.5 2.6 2.3 2.5 5.6 1.9 4.6-.8 29.19-11.8 30.29-38.7 1.6-34-31.09-71.4-89-71.1zm-429.18 144.7c-18.39 20.1-44.19 27.7-55.28 21.3C54.61 451 59.31 421.42 82 400c13.8-13 31.59-25 43.39-32.4 2.7-1.6 6.6-4 11.4-6.9.8-.5 1.2-.7 1.2-.7.9-.6 1.9-1.1 2.9-1.7 8.29 30.4.3 57.2-19.1 78.3zm134.36-91.4c-6.4 15.7-19.89 55.7-28.09 53.6-7-1.8-11.3-32.3-1.4-62.3 5-15.1 15.6-33.1 21.9-40.1 10.09-11.3 21.19-14.9 23.79-10.4 3.5 5.9-12.2 49.4-16.2 59.2zm111 53c-2.7 1.4-5.2 2.3-6.4 1.6-.9-.5 1.1-2.4 1.1-2.4s13.9-14.9 19.4-21.7c3.2-4 6.9-8.7 10.89-13.9 0 .5.1 1 .1 1.6-.13 17.9-17.32 30-25.12 34.8zm85.58-19.5c-2-1.4-1.7-6.1 5-20.7 2.6-5.7 8.59-15.3 19-24.5a36.18 36.18 0 0 1 1.9 10.8c-.1 22.5-16.2 30.9-25.89 34.4z"
     id="path3169" />
  <path
     style="fill:#076acd;stroke-width:0.614646"
     d="m 58.084034,495.3297 c -13.482379,-2.05111 -17.586219,-3.52546 -22.515236,-8.08885 -14.150544,-13.10091 -18.17037,-34.72057 -10.631445,-57.17864 2.072804,-6.17477 6.273918,-14.18726 10.106493,-19.27539 14.097989,-18.71652 42.619891,-39.91103 80.202254,-59.59799 12.07953,-6.32768 11.39707,-5.80303 9.52701,-7.32398 -5.42554,-4.41264 -19.58148,-14.74339 -31.961585,-23.32498 C 59.333914,297.33403 46.481908,287.14267 32.23785,272.50626 18.981352,258.88462 11.422778,248.17672 5.8369168,235.10523 0.56797322,222.77536 -0.66551918,211.7667 1.8427701,199.45831 8.6115603,166.24329 37.100283,128.60981 79.495751,96.879048 114.92182,70.364512 162.33127,45.901997 208.36495,30.38461 c 56.49974,-19.045371 114.77574,-18.656559 153.87288,1.026626 17.77234,8.947364 30.22399,21.603932 36.07278,36.666426 4.83846,12.460583 5.94154,29.795404 2.84734,44.745728 -5.12918,24.78279 -18.96302,49.114 -39.73411,69.88509 -22.97076,22.97076 -50.19768,37.71748 -86.36982,46.77988 -28.56391,7.15628 -58.98562,8.8171 -80.51861,4.3958 -21.45002,-4.40427 -41.3556,-18.79122 -45.80396,-33.10526 -1.3956,-4.49079 -1.13184,-6.41931 1.01153,-7.39589 1.4089,-0.64194 1.83905,-0.373 5.94553,3.7172 19.14064,19.06486 51.41014,23.33461 94.47235,12.50015 42.5863,-10.71472 79.865,-34.60224 101.73369,-65.18912 7.24235,-10.12959 11.64345,-18.90533 14.78066,-29.47246 1.30438,-4.39357 1.70337,-7.23919 1.9391,-13.82954 0.46692,-13.054202 -1.74214,-20.10261 -8.5971,-27.430582 -8.39675,-8.976147 -22.50728,-14.961438 -42.06036,-17.840827 -10.04317,-1.478959 -32.33912,-1.477671 -44.13212,0.0025 -36.03248,4.522684 -70.23637,16.009935 -110.48458,37.105856 -55.48907,29.084333 -91.50419,59.444933 -106.892688,90.110093 -6.135617,12.22664 -8.221138,21.14711 -8.144246,34.83563 0.04772,8.49382 0.234019,10.12692 1.717935,15.05882 3.813822,12.6755 10.119671,22.32686 23.119143,35.38478 9.486229,9.52888 14.266699,13.58503 34.730056,29.4679 19.23645,14.9306 25.05031,19.79187 33.31222,27.85405 l 7.49709,7.31585 17.39607,-9.54375 c 9.56783,-5.24907 24.03082,-13.17754 32.13998,-17.61883 8.10915,-4.4413 14.98025,-8.49739 15.2691,-9.01354 0.28885,-0.51614 2.61474,-3.42893 5.16865,-6.47285 11.47495,-13.67666 29.62392,-26.38858 42.35242,-29.66453 4.29779,-1.10612 11.1234,-1.26532 14.46445,-0.33736 3.80942,1.05805 8.02034,4.32076 10.12274,7.84333 3.23502,5.42025 4.12757,10.46647 3.70266,20.93383 -0.20101,4.95196 -0.54917,9.83335 -0.77369,10.84752 l -0.40819,1.84394 1.33027,-1.38243 c 2.49397,-2.59173 6.14505,-4.01986 9.31669,-3.64423 6.68175,0.79135 11.23705,4.55373 11.21229,9.2606 -0.007,1.38994 -2.12568,10.40999 -4.70749,20.04457 -5.65615,21.10716 -9.79332,38.37553 -11.178,46.65655 -1.04249,6.23452 -1.0868,17.29764 -0.0733,18.2921 2.21044,2.16883 16.19221,-26.80787 49.5784,-102.74937 10.58968,-24.08767 12.35905,-28.62466 14.71261,-37.72587 2.68307,-10.37543 2.702,-10.41406 5.76339,-11.76826 7.5063,-3.32039 26.33242,-4.10616 31.63412,-1.32034 4.38526,2.30427 4.45155,3.08416 1.14611,13.4853 -3.57828,11.25969 -4.61901,16.06751 -5.08687,23.49964 -0.39742,6.31321 0.89315,18.55572 2.59177,24.58583 1.20584,4.28072 7.646,17.88401 8.28098,17.49157 0.58286,-0.36023 12.24546,-20.27727 18.52031,-31.62842 13.44731,-24.32611 18.7511,-35.91077 21.40561,-46.75467 2.14467,-8.76119 4.16045,-15.26653 5.09577,-16.44512 2.45243,-3.09028 12.86465,-5.22318 24.02034,-4.92046 8.17508,0.22184 11.19774,1.18159 13.45379,4.27182 l 1.17639,1.61137 -3.0903,9.45226 c -3.86413,11.81917 -5.02228,17.91331 -5.02228,26.42697 0,7.27104 1.29688,17.47621 2.84186,22.36263 1.55536,4.91925 11.46061,24.96504 12.17837,24.64602 19.40496,-8.62471 34.98291,-12.43527 53.54203,-13.09703 45.70901,-1.62983 81.90692,20.41922 91.35544,55.6469 1.68154,6.26941 1.81037,17.72927 0.26325,23.41116 -1.43618,5.2743 -4.5418,11.24353 -8.15961,15.68329 -5.48682,6.7335 -16.1079,13.66888 -21.93962,14.3262 -2.34745,0.26459 -2.82884,0.12016 -3.44659,-1.03412 -0.93412,-1.74542 -0.36137,-2.42317 5.24443,-6.20592 8.32017,-5.61441 14.59657,-14.12388 16.30989,-22.11275 1.02831,-4.79481 0.36781,-12.92812 -1.48689,-18.30975 -4.27326,-12.39955 -15.26425,-24.15088 -29.03027,-31.03862 -19.15845,-9.58582 -51.89089,-12.89019 -77.13543,-7.78689 -5.21431,1.05409 -18.06956,4.97124 -18.83869,5.74036 -0.16131,0.1613 0.41995,2.3597 1.29168,4.88532 1.97223,5.71406 3.24251,11.66747 3.76442,17.64258 1.31566,15.06249 -8.63486,30.78784 -27.03899,42.73124 -6.03562,3.91682 -9.36279,5.58038 -16.92537,8.46259 -10.92775,4.16471 -15.49888,4.88018 -20.31748,3.18007 -4.06396,-1.43384 -6.71078,-3.7993 -8.41396,-7.51953 -1.41906,-3.09964 -1.51457,-3.8683 -1.23014,-9.90008 0.33567,-7.1187 2.33086,-14.34885 5.92369,-21.46621 5.15804,-10.21801 16.8124,-24.84076 26.06863,-32.70836 2.58519,-2.19736 4.7071,-4.31443 4.71536,-4.70459 0.008,-0.39017 -1.92821,-4.67732 -4.30325,-9.52701 -5.77533,-11.79284 -8.27971,-19.69996 -12.81845,-40.47188 l -0.47006,-2.15126 -2.92025,5.76351 c -8.24919,16.28091 -19.00587,34.81065 -29.3021,50.47658 l -6.66548,10.14166 2.13545,5.68156 c 3.87102,10.29923 4.8589,15.42377 4.82915,25.05073 -0.0236,7.63393 -0.21118,9.15996 -1.66234,13.52221 -0.89966,2.70444 -2.68004,6.71023 -3.9564,8.90175 -2.86172,4.9136 -10.80688,13.04577 -16.15018,16.53031 -9.80354,6.39321 -23.72619,11.69077 -35.03097,13.32927 -12.48022,1.80886 -20.18637,0.41897 -23.50976,-4.24026 -1.85332,-2.59826 -1.84761,-7.67271 0.0127,-11.25177 1.73258,-3.3334 8.52151,-11.99722 20.40109,-26.03521 9.66243,-11.418 16.81152,-20.36715 22.36796,-27.99997 l 2.98768,-4.10413 -4.94626,-10.22406 c -7.37294,-15.24006 -9.62537,-21.65595 -13.01877,-37.083 -0.9668,-4.39526 -1.90806,-8.14163 -2.09169,-8.32527 -0.18363,-0.18363 -0.52588,0.18975 -0.76055,0.82973 -1.78545,4.86917 -14.15889,33.86749 -19.24856,45.11079 -9.37329,20.70599 -32.40963,65.07694 -39.25046,75.60144 -3.27638,5.04064 -12.75373,14.26402 -16.36944,15.93077 -4.2225,1.94648 -10.15495,1.65121 -13.67888,-0.68082 -7.4622,-4.93826 -10.99589,-19.03438 -9.44372,-37.6717 0.38118,-4.57689 0.86051,-9.21805 1.06518,-10.31368 0.67545,-3.61578 -0.70789,-1.0235 -5.33293,9.99353 -6.05901,14.43281 -15.8593,33.78029 -19.67406,38.84001 -5.97759,7.9284 -13.93008,11.36274 -22.72432,9.81367 -3.88536,-0.6844 -7.91879,-2.40963 -10.06438,-4.30487 -4.92297,-4.34856 -10.9102,-15.17682 -14.48913,-26.20448 -3.23076,-9.95484 -4.38155,-16.26241 -4.76815,-26.13473 -0.52352,-13.36825 2.34447,-33.76008 6.55941,-46.63838 0.9539,-2.91456 1.64218,-5.39722 1.52952,-5.51703 -0.11266,-0.11981 -2.36563,0.9693 -5.00661,2.42026 -4.82629,2.65155 -31.05339,17.75212 -31.43661,18.09999 -0.11279,0.10239 0.77264,2.62986 1.96761,5.6166 4.50425,11.25799 6.24736,22.94401 5.74534,38.5173 -0.45412,14.08758 -2.50133,24.76303 -6.96747,36.33277 -12.72288,32.9592 -42.02464,57.8558 -76.449182,64.95596 -5.672769,1.17002 -22.43847,2.03773 -26.737094,1.38377 z m 29.195678,-36.58871 c 2.535414,-0.63434 7.666662,-2.64806 11.402768,-4.47493 22.14546,-10.82859 39.02097,-32.78172 44.35569,-57.70168 1.61483,-7.54336 1.43514,-23.86085 -0.35281,-32.03718 -0.73416,-3.35734 -1.46865,-6.23806 -1.63221,-6.40161 -0.40229,-0.4023 -15.16149,8.59616 -26.11437,15.92154 -16.033718,10.72349 -31.59258,23.26362 -37.990829,30.61985 -7.297106,8.38966 -13.168412,18.9915 -15.530638,28.0437 -1.62151,6.21375 -1.762294,14.79419 -0.307445,18.73799 3.103463,8.41286 11.897152,10.86325 26.169844,7.29232 z M 366.02161,398.99331 c 3.98253,-1.86148 12.14532,-8.0369 15.82936,-11.97544 4.0283,-4.30657 7.53592,-9.93353 8.99224,-14.42543 1.5225,-4.69598 2.36547,-11.13061 1.41458,-10.79777 -0.36414,0.12746 -3.81085,4.17385 -7.65937,8.99199 -3.84851,4.81813 -10.57075,12.66426 -14.93832,17.43585 -9.19745,10.04828 -9.72302,10.7103 -9.18896,11.57444 0.61441,0.99414 2.19329,0.76554 5.55047,-0.80364 z m -134.89787,-0.83755 c 4.01925,-2.79476 8.71135,-11.18798 15.55885,-27.83163 15.62901,-37.98813 26.17023,-70.53038 26.20687,-80.90433 0.0162,-4.5789 -0.80035,-5.47169 -4.94751,-5.40961 -4.27237,0.0639 -10.0106,3.12505 -15.54255,8.29128 -5.67481,5.29964 -9.43512,10.32963 -15.00576,20.07249 -10.8746,19.01931 -15.82935,35.80901 -16.55731,56.10623 -0.38046,10.6081 0.33077,17.78004 2.37357,23.93451 2.05097,6.17908 4.612,8.03697 7.91384,5.74106 z m 225.32634,-20.54837 c 14.63516,-6.45313 22.50567,-18.22883 22.30004,-33.36493 -0.0675,-4.96766 -1.15214,-10.2823 -2.16713,-10.61856 -1.06354,-0.35235 -10.38986,9.95781 -14.32088,15.83161 -5.67905,8.48576 -11.62504,23.82936 -10.76667,27.78339 0.44209,2.03646 1.06648,2.0829 4.95464,0.36849 z"
     id="path3271" />
</svg>
