<?xml version="1.0" encoding="UTF-8" standalone="no"?>
<svg
   viewBox="0 0 576 512"
   version="1.1"
   id="svg3349"
   sodipodi:docname="terminal-solid.svg"
   inkscape:version="1.1.1 (3bf5ae0d25, 2021-09-20)"
   xmlns:inkscape="http://www.inkscape.org/namespaces/inkscape"
   xmlns:sodipodi="http://sodipodi.sourceforge.net/DTD/sodipodi-0.dtd"
   xmlns="http://www.w3.org/2000/svg"
   xmlns:svg="http://www.w3.org/2000/svg">
  <defs
     id="defs3353" />
  <sodipodi:namedview
     id="namedview3351"
     pagecolor="#ffffff"
     bordercolor="#666666"
     borderopacity="1.0"
     inkscape:pageshadow="2"
     inkscape:pageopacity="0.0"
     inkscape:pagecheckerboard="0"
     showgrid="false"
     inkscape:zoom="0.81347656"
     inkscape:cx="607.88475"
     inkscape:cy="252.0048"
     inkscape:window-width="1920"
     inkscape:window-height="1011"
     inkscape:window-x="0"
     inkscape:window-y="32"
     inkscape:window-maximized="1"
     inkscape:current-layer="svg3349" />
  <!--! Font Awesome Pro 6.1.1 by @fontawesome - https://fontawesome.com License - https://fontawesome.com/license (Commercial License) Copyright 2022 Fonticons, Inc. -->
  <path
     d="M9.372 86.63C-3.124 74.13-3.124 53.87 9.372 41.37C21.87 28.88 42.13 28.88 54.63 41.37L246.6 233.4C259.1 245.9 259.1 266.1 246.6 278.6L54.63 470.6C42.13 483.1 21.87 483.1 9.372 470.6C-3.124 458.1-3.124 437.9 9.372 425.4L178.7 256L9.372 86.63zM544 416C561.7 416 576 430.3 576 448C576 465.7 561.7 480 544 480H256C238.3 480 224 465.7 224 448C224 430.3 238.3 416 256 416H544z"
     id="path3347" />
  <path
     style="fill:#076acd;stroke-width:1.22929"
     d="M 18.795492,476.24525 C 12.77346,473.26438 5.4229076,465.56829 2.9537791,459.65882 0.67271637,454.19948 0.75806142,441.76374 3.115792,436.05175 4.4357934,432.85384 31.288853,405.18108 92.53927,343.89862 L 180.07625,256.31587 93.167389,169.3392 C 26.290861,102.4105 5.6851392,81.087472 3.7709093,76.830732 -3.6348769,60.362226 5.0097538,40.233426 21.970065,34.454467 c 7.075336,-2.410809 12.958228,-2.376796 20.528837,0.118692 5.529421,1.822653 14.767569,10.691496 105.855478,101.623781 67.73942,67.62368 100.76959,101.43599 102.82393,105.25877 4.35375,8.10158 5.10974,14.60805 2.68448,23.10403 -2.02246,7.08491 -2.43992,7.52344 -103.05358,108.25104 C 82.865735,440.83119 48.149758,474.74394 44.788354,476.3786 c -6.920423,3.36542 -19.050258,3.3032 -25.992862,-0.13335 z"
     id="path3449" />
  <path
     style="fill:#076acd;stroke-width:1.22929"
     d="m 251.90701,478.81326 c -31.67763,-5.45631 -36.73809,-46.72785 -7.36736,-60.08589 3.97783,-1.80915 18.64802,-1.99748 155.5948,-1.99748 140.20201,0 151.52748,0.15321 155.66433,2.10575 19.57839,9.24079 25.42631,33.00996 12.09925,49.17799 -2.03682,2.47102 -6.87281,6.04917 -10.74665,7.95145 l -7.04334,3.45869 -146.28571,0.17958 c -80.45714,0.0988 -148.81904,-0.25677 -151.91532,-0.79009 z"
     id="path3488" />
</svg>
