<?xml version="1.0" encoding="UTF-8" standalone="no"?>
<!-- Created with Inkscape (http://www.inkscape.org/) -->

<svg
   width="207.66351mm"
   height="124.75368mm"
   viewBox="0 0 207.66351 124.75368"
   version="1.1"
   id="svg2658"
   inkscape:version="1.1.1 (3bf5ae0d25, 2021-09-20)"
   sodipodi:docname="laptop-only-blank.svg"
   xmlns:inkscape="http://www.inkscape.org/namespaces/inkscape"
   xmlns:sodipodi="http://sodipodi.sourceforge.net/DTD/sodipodi-0.dtd"
   xmlns="http://www.w3.org/2000/svg"
   xmlns:svg="http://www.w3.org/2000/svg">
  <sodipodi:namedview
     id="namedview2660"
     pagecolor="#ffffff"
     bordercolor="#666666"
     borderopacity="1.0"
     inkscape:pageshadow="2"
     inkscape:pageopacity="0.0"
     inkscape:pagecheckerboard="0"
     inkscape:document-units="mm"
     showgrid="false"
     inkscape:zoom="0.74208053"
     inkscape:cx="417.07064"
     inkscape:cy="221.00027"
     inkscape:window-width="960"
     inkscape:window-height="1011"
     inkscape:window-x="0"
     inkscape:window-y="32"
     inkscape:window-maximized="0"
     inkscape:current-layer="layer1" />
  <defs
     id="defs2655">
    <linearGradient
       id="e"
       x1="635.28003"
       x2="1420.2"
       y1="750.66998"
       y2="750.66998"
       gradientUnits="userSpaceOnUse"
       gradientTransform="matrix(0.26458333,0,0,0.26458333,-167.35033,-12.438519)">
      <stop
         stop-color="#606162"
         offset="0"
         id="stop1340" />
      <stop
         stop-color="#b7babb"
         offset=".12"
         id="stop1342" />
      <stop
         stop-color="#a2a5a6"
         offset=".36"
         id="stop1344" />
      <stop
         stop-color="#c9cccd"
         offset=".51"
         id="stop1346" />
      <stop
         stop-color="#848687"
         offset=".73"
         id="stop1348" />
      <stop
         stop-color="#9c9fa0"
         offset=".88"
         id="stop1350" />
      <stop
         stop-color="#4c4d4e"
         offset="1"
         id="stop1352" />
    </linearGradient>
    <linearGradient
       id="d"
       x1="1023.8"
       x2="1023.8"
       y1="738.51001"
       y2="749.87"
       gradientUnits="userSpaceOnUse"
       gradientTransform="matrix(0.26458333,0,0,0.26458333,-167.35033,-12.438519)">
      <stop
         stop-color="#9c9fa0"
         offset="0"
         id="stop1355" />
      <stop
         stop-color="#a2a5a6"
         offset=".24"
         id="stop1357" />
      <stop
         stop-color="#4c4d4e"
         offset="1"
         id="stop1359" />
    </linearGradient>
  </defs>
  <g
     inkscape:label="Layer 1"
     inkscape:groupmode="layer"
     id="layer1"
     transform="translate(-0.73417026,-68.055664)">
    <path
       class="cls-1"
       d="m 30.75644,72.421292 h 148.76198 a 9.3080415,9.3080415 0 0 1 9.30804,9.308042 V 182.4906 H 21.4484 V 81.729334 a 9.3080415,9.3080415 0 0 1 9.30804,-9.308042 z"
       id="path1383"
       style="fill:#040404;stroke-width:0.264583" />
    <rect
       class="cls-2"
       x="29.94417"
       y="82.552185"
       width="151.04268"
       height="90.619789"
       rx="0.58472919"
       ry="0.58472919"
       id="rect1385"
       style="fill:#ffffff;stroke-width:0.264583" />
    <ellipse
       class="cls-3"
       cx="105.38218"
       cy="78.035759"
       rx="0.95779163"
       ry="0.56885421"
       id="ellipse1387"
       style="fill:#4d4d4d;stroke-width:0.264583" />
    <image
       width="20.372917"
       height="19.84375"
       id="image1389"
       x="95.039604"
       y="68.055664" />
    <path
       class="cls-11"
       d="m 206.98217,187.89868 c 0,1.6854 -6.64898,4.13015 -7.88988,4.13015 h -188.214 c -1.2408897,0 -7.8898697,-2.4474 -7.8898697,-4.13015 z"
       id="path1439"
       style="fill:#919296;stroke-width:0.264583" />
    <path
       class="cls-12"
       d="M 0.73417026,182.45621 H 208.39769 v 1.38641 a 6.0536666,6.0536666 0 0 1 -6.05367,6.05367 H 6.6396703 a 5.9054999,5.9054999 0 0 1 -5.90550004,-5.9055 z"
       id="path1441"
       style="fill:url(#e);stroke-width:0.264583" />
    <path
       class="cls-13"
       d="m 202.008,191.02606 c 0,0.7276 -6.33148,1.78329 -7.51152,1.78329 H 15.28625 c -1.18004,0 -7.5115197,-1.05833 -7.5115197,-1.78329 z"
       id="path1443"
       style="fill:#464142;stroke-width:0.264583" />
    <path
       class="cls-14"
       d="m 117.97633,182.95891 a 3.0612291,3.0612291 0 0 1 -2.97656,3.00567 H 91.795813 c -1.677459,0 -2.709334,-1.50283 -2.709334,-3.00302 z"
       id="path1445"
       style="fill:url(#d);stroke-width:0.264583" />
    <path
       class="cls-15"
       d="m 74.862479,192.26696 c 0.563563,-0.43657 2.148417,-0.42598 2.55323,0.0159 a 4.5455416,4.5455416 0 0 1 -2.55323,-0.0159 z"
       id="path1447"
       style="fill:#1d1e21;stroke-width:0.264583" />
    <path
       class="cls-15"
       d="m 131.15258,192.38337 c 0.56357,-0.43656 2.14842,-0.42598 2.55323,0.0159 a 4.5455416,4.5455416 0 0 1 -2.55323,-0.0159 z"
       id="path1449"
       style="fill:#1d1e21;stroke-width:0.264583" />
    <path
       class="cls-15"
       d="m 15.21217,192.18229 c 0.56356,-0.43656 2.14841,-0.42598 2.55323,0.0159 a 4.5455416,4.5455416 0 0 1 -2.55323,-0.0159 z"
       id="path1451"
       style="fill:#1d1e21;stroke-width:0.264583" />
    <path
       class="cls-15"
       d="m 189.91654,192.32781 c 0.56356,-0.43656 2.14842,-0.42598 2.55323,0.0159 a 4.5455416,4.5455416 0 0 1 -2.55323,-0.0159 z"
       id="path1453"
       style="fill:#1d1e21;stroke-width:0.264583" />
    <path
       class="cls-16"
       d="m 187.98508,186.66043 a 1.571625,1.571625 0 0 1 -0.41804,0.12436 h -6.08542 a 0.54768749,0.54768749 0 0 1 -0.41539,-0.13494 c 2.30452,-0.0556 4.61433,-0.0714 6.91885,0.0106 z"
       id="path1455"
       style="fill:#0d0f12;stroke-width:0.264583" />
    <path
       class="cls-17"
       d="m 180.94717,187.10758 c -0.26459,-0.32544 -0.50007,-0.64558 0.11112,-0.85725 1.53988,0.13758 3.0824,0.0397 4.62227,0.0556 a 14.118166,14.118166 0 0 0 2.30452,-0.0423 c 0.60854,0.29898 0.33338,0.58737 0,0.87312 -0.4101,0.17463 -0.84137,0.0767 -1.25941,0.0794 -1.68275,0.0132 -3.36815,0 -5.05355,0 -0.24606,-0.005 -0.51064,0.10583 -0.72495,-0.10848 z"
       id="path1457"
       style="fill:#1c1e20;stroke-width:0.264583" />
    <path
       class="cls-18"
       d="m 180.94717,187.10758 7.03262,0.0212 a 0.98689582,0.98689582 0 0 1 -0.0132,0.12435 q -3.48721,0.0185 -6.97441,0.0238 c -0.0185,0 -0.0529,-0.0238 -0.0529,-0.037 a 0.85195832,0.85195832 0 0 1 0.008,-0.13229 z"
       id="path1459"
       style="fill:#dcdde0;stroke-width:0.264583" />
    <path
       class="cls-16"
       d="m 187.98508,186.26356 a 1.571625,1.571625 0 0 1 -0.41804,0.12435 h -6.08542 a 0.54768749,0.54768749 0 0 1 -0.41539,-0.13493 c 2.30452,-0.0609 4.61433,-0.0767 6.91885,0.0106 z"
       id="path1461"
       style="fill:#0d0f12;stroke-width:0.264583" />
    <path
       class="cls-16"
       d="m 187.98508,186.26356 a 1.571625,1.571625 0 0 1 -0.41804,0.12435 h -6.08542 a 0.54768749,0.54768749 0 0 1 -0.41539,-0.13493 c 2.30452,-0.0609 4.61433,-0.0767 6.91885,0.0106 z"
       id="path1463"
       style="fill:#0d0f12;stroke-width:0.264583" />
    <path
       class="cls-17"
       d="m 180.94717,187.10758 c -0.26459,-0.32544 -0.50007,-0.64558 0.11112,-0.85725 1.53988,0.13758 3.0824,0.0397 4.62227,0.0556 a 14.118166,14.118166 0 0 0 2.30452,-0.0423 c 0.60854,0.29898 0.33338,0.58737 0,0.87312 -0.4101,0.17463 -0.84137,0.0767 -1.25941,0.0794 -1.68275,0.0132 -3.36815,0 -5.05355,0 -0.24606,-0.005 -0.51064,0.10583 -0.72495,-0.10848 z"
       id="path1465"
       style="fill:#1c1e20;stroke-width:0.264583" />
    <path
       class="cls-19"
       d="m 180.94717,187.10758 7.03262,0.0212 a 0.98689582,0.98689582 0 0 1 -0.0132,0.12435 q -3.48721,0.0185 -6.97441,0.0238 c -0.0185,0 -0.0529,-0.0238 -0.0529,-0.037 a 0.85195832,0.85195832 0 0 1 0.008,-0.13229 z"
       id="path1467"
       style="fill:#cecece;stroke-width:0.264583" />
    <path
       class="cls-16"
       d="m 187.98508,186.26356 a 1.571625,1.571625 0 0 1 -0.41804,0.12435 h -6.08542 a 0.54768749,0.54768749 0 0 1 -0.41539,-0.13493 c 2.30452,-0.0609 4.61433,-0.0767 6.91885,0.0106 z"
       id="path1469"
       style="fill:#0d0f12;stroke-width:0.264583" />
  </g>
</svg>
