<?xml version="1.0" encoding="UTF-8" standalone="no"?>
<svg
   viewBox="0 0 512 512"
   version="1.1"
   id="svg59"
   sodipodi:docname="css3-brands.svg"
   inkscape:version="1.1.1 (3bf5ae0d25, 2021-09-20)"
   xmlns:inkscape="http://www.inkscape.org/namespaces/inkscape"
   xmlns:sodipodi="http://sodipodi.sourceforge.net/DTD/sodipodi-0.dtd"
   xmlns="http://www.w3.org/2000/svg"
   xmlns:svg="http://www.w3.org/2000/svg">
  <defs
     id="defs63" />
  <sodipodi:namedview
     id="namedview61"
     pagecolor="#ffffff"
     bordercolor="#666666"
     borderopacity="1.0"
     inkscape:pageshadow="2"
     inkscape:pageopacity="0.0"
     inkscape:pagecheckerboard="0"
     showgrid="false"
     inkscape:zoom="0.77734375"
     inkscape:cx="143.43719"
     inkscape:cy="375.63819"
     inkscape:window-width="1920"
     inkscape:window-height="1011"
     inkscape:window-x="0"
     inkscape:window-y="32"
     inkscape:window-maximized="1"
     inkscape:current-layer="svg59" />
  <!--! Font Awesome Pro 6.1.1 by @fontawesome - https://fontawesome.com License - https://fontawesome.com/license (Commercial License) Copyright 2022 Fonticons, Inc. -->
  <path
     d="M480 32l-64 368-223.3 80L0 400l19.6-94.8h82l-8 40.6L210 390.2l134.1-44.4 18.8-97.1H29.5l16-82h333.7l10.5-52.7H56.3l16.3-82H480z"
     id="path57" />
  <path
     style="fill:#076acd;stroke:none;stroke-width:1.28643;fill-opacity:1"
     d="M 96.482412,439.31265 C 7.1051996,402.05334 1.3085526,399.44489 1.6483262,396.63794 1.847368,394.9936 6.044353,374.17113 10.974959,350.36577 c 4.930607,-23.80536 8.964739,-43.6325 8.964739,-44.0603 0,-0.42781 18.274186,-0.77783 40.609304,-0.77783 38.067598,0 40.568278,0.1409 39.953858,2.25125 -1.881823,6.46348 -7.512383,37.7811 -6.902307,38.39118 1.574593,1.57459 114.985537,44.23978 117.374317,44.1562 1.41508,-0.0495 32.09649,-10.03186 68.18091,-22.18301 l 65.60804,-22.09301 9.2646,-47.59799 c 5.09555,-26.17889 9.29253,-48.32161 9.32663,-49.20603 0.0493,-1.27848 -34.09844,-1.60804 -166.61762,-1.60804 -158.139689,0 -166.645386,-0.11539 -166.010847,-2.25126 0.367842,-1.23819 3.948322,-19.18392 7.956622,-39.87939 L 45.971024,167.8794 H 212.86993 379.76885 l 4.78201,-24.12061 c 2.63011,-13.26633 5.09211,-25.42311 5.47112,-27.01507 l 0.6891,-2.89447 H 223.8392 56.967312 l 0.702181,-2.89448 c 0.3862,-1.59196 3.990426,-19.827132 8.009394,-40.522609 L 72.986099,32.80402 H 276.2305 479.4749 l -0.69996,2.894472 c -0.38499,1.59196 -14.7028,83.650248 -31.81737,182.351758 -17.11457,98.70151 -31.76888,180.11024 -32.56512,180.90829 -1.25449,1.25734 -220.65638,80.40305 -222.15341,80.13828 -0.30835,-0.0545 -43.39884,-17.95741 -95.756628,-39.78417 z"
     id="path182" />
</svg>
