<?xml version="1.0" encoding="UTF-8" standalone="no"?>
<svg
   viewBox="0 0 448 512"
   version="1.1"
   id="svg1193"
   sodipodi:docname="git-alt-brands.svg"
   inkscape:version="1.1.1 (3bf5ae0d25, 2021-09-20)"
   xmlns:inkscape="http://www.inkscape.org/namespaces/inkscape"
   xmlns:sodipodi="http://sodipodi.sourceforge.net/DTD/sodipodi-0.dtd"
   xmlns="http://www.w3.org/2000/svg"
   xmlns:svg="http://www.w3.org/2000/svg">
  <defs
     id="defs1197" />
  <sodipodi:namedview
     id="namedview1195"
     pagecolor="#ffffff"
     bordercolor="#666666"
     borderopacity="1.0"
     inkscape:pageshadow="2"
     inkscape:pageopacity="0.0"
     inkscape:pagecheckerboard="0"
     showgrid="false"
     inkscape:zoom="1.5507812"
     inkscape:cx="224.0806"
     inkscape:cy="256"
     inkscape:window-width="1920"
     inkscape:window-height="1011"
     inkscape:window-x="0"
     inkscape:window-y="32"
     inkscape:window-maximized="1"
     inkscape:current-layer="svg1193" />
  <!--! Font Awesome Pro 6.1.1 by @fontawesome - https://fontawesome.com License - https://fontawesome.com/license (Commercial License) Copyright 2022 Fonticons, Inc. -->
  <path
     d="M439.55 236.05L244 40.45a28.87 28.87 0 0 0-40.81 0l-40.66 40.63 51.52 51.52c27.06-9.14 52.68 16.77 43.39 43.68l49.66 49.66c34.23-11.8 61.18 31 35.47 56.69-26.49 26.49-70.21-2.87-56-37.34L240.22 199v121.85c25.3 12.54 22.26 41.85 9.08 55a34.34 34.34 0 0 1-48.55 0c-17.57-17.6-11.07-46.91 11.25-56v-123c-20.8-8.51-24.6-30.74-18.64-45L142.57 101 8.45 235.14a28.86 28.86 0 0 0 0 40.81l195.61 195.6a28.86 28.86 0 0 0 40.8 0l194.69-194.69a28.86 28.86 0 0 0 0-40.81z"
     id="path1191" />
  <path
     style="fill:#076acd;fill-opacity:1;stroke-width:0.644836"
     d="m 215.86665,478.21936 c -2.03506,-0.67023 -5.08191,-2.11115 -6.77078,-3.20203 C 207.407,473.92644 160.86502,427.82848 105.66925,372.5774 -9.7999437,256.99251 0.96725441,269.01613 0.96725441,255.6577 c 0,-7.31435 0.0474916,-7.55805 2.39029849,-12.26545 2.291071,-4.60345 5.2362252,-7.64755 70.9460341,-73.32959 l 68.555733,-68.52677 25.01018,25.09683 25.01019,25.09684 -1.10951,3.7725 c -1.47755,5.02389 -1.46788,14.15239 0.0204,19.24857 2.5594,8.76406 8.50939,16.34956 15.92449,20.30177 l 3.79125,2.02071 v 61.16007 61.16008 l -3.70781,2.08866 c -10.2353,5.76569 -17.54939,18.38399 -17.54939,30.27627 0,8.70825 4.10019,18.20437 10.509,24.33903 7.31048,6.99776 14.33841,9.84348 24.2758,9.82963 9.58286,-0.0133 16.80305,-2.80416 23.52663,-9.09373 11.8057,-11.04366 14.44025,-30.73925 5.88885,-44.02446 -2.52302,-3.9197 -7.38223,-8.5694 -11.1849,-10.70267 l -2.74055,-1.53742 v -60.33126 -60.33126 l 22.79515,22.78837 22.79514,22.78836 -0.96849,2.67927 c -1.28479,3.55426 -1.74818,13.5664 -0.82675,17.8629 1.26524,5.89957 4.4665,11.49213 9.39611,16.41489 13.6018,13.58289 33.89184,14.31236 47.54467,1.70931 7.93529,-7.32515 11.58779,-15.39738 11.56974,-25.5698 -0.0269,-15.20237 -9.50132,-28.45554 -23.79133,-33.28046 -5.01484,-1.69323 -14.00238,-1.99373 -18.81569,-0.62911 l -2.84552,0.80674 -24.7269,-24.71811 c -16.93427,-16.92824 -24.60892,-25.02293 -24.35253,-25.68536 0.20591,-0.53199 0.68632,-3.28867 1.06757,-6.12595 1.36834,-10.18301 -2.16312,-20.35777 -9.73742,-28.05524 -8.45229,-8.58973 -20.46285,-12.14988 -32.37236,-9.59575 l -3.34216,0.71676 -25.38457,-25.37846 -25.38457,-25.378474 21.763,-21.795276 c 19.88872,-19.918218 22.1706,-21.998072 26.49577,-24.150017 4.12022,-2.049973 5.47052,-2.390013 10.43289,-2.627267 7.4109,-0.35432 13.09223,1.273232 18.4492,5.285213 2.08211,1.559348 48.49486,47.627127 103.13945,102.372841 99.05913,99.24245 99.36021,99.55194 101.51519,104.35177 4.01088,8.93349 3.28323,19.03396 -1.94241,26.96269 -1.53478,2.32868 -39.25822,40.46331 -102.29111,103.4061 -95.77423,95.63732 -100.04432,99.80425 -104.37351,101.85208 -3.9561,1.87136 -5.2708,2.1592 -10.63979,2.32953 -4.67655,0.14837 -7.00139,-0.094 -9.82605,-1.02424 z"
     id="path1236" />
</svg>
